<svg xmlns="http://www.w3.org/2000/svg" xmlns:xlink="http://www.w3.org/1999/xlink" width="30" height="30" viewBox="0 0 30 30">
    <defs>
        <path id="dk7vkucdxa" d="M0 0H30V30H0z"/>
    </defs>
    <g fill="none" fill-rule="evenodd">
        <g>
            <g>
                <g transform="translate(-75 -601) translate(50 576) translate(25 25)">
                    <mask id="jlew9m0zgb" fill="#fff">
                        <use xlink:href="#dk7vkucdxa"/>
                    </mask>
                    <g mask="url(#jlew9m0zgb)">
                        <g>
                            <path fill="#D6D6D6" d="M29.063 10.625h-8.125c-.518 0-.938.42-.938.937 0 .518.42.938.938.938h8.125c.517 0 .937-.42.937-.938 0-.517-.42-.937-.937-.937zM29.063 14.375h-8.125c-.518 0-.938.42-.938.937 0 .518.42.938.938.938h8.125c.517 0 .937-.42.937-.938 0-.517-.42-.937-.937-.937zM29.063 18.125h-8.125c-.518 0-.938.42-.938.937 0 .518.42.938.938.938h8.125c.517 0 .937-.42.937-.938 0-.517-.42-.937-.937-.937zM29.063 21.875h-8.125c-.518 0-.938.42-.938.937 0 .518.42.938.938.938h8.125c.517 0 .937-.42.937-.938 0-.517-.42-.937-.937-.937zM29.063 25.625h-8.125c-.518 0-.938.42-.938.937 0 .518.42.938.938.938h8.125c.517 0 .937-.42.937-.938 0-.517-.42-.937-.937-.937zM15.313 10.625H2.188c-1.2 0-2.188.987-2.188 2.187v12.5c0 1.2.988 2.188 2.188 2.188h13.125c1.2 0 2.187-.987 2.187-2.187v-12.5c0-1.2-.987-2.188-2.187-2.188zM8.75 15c1.037 0 1.875.838 1.875 1.875S9.787 18.75 8.75 18.75s-1.875-.838-1.875-1.875S7.712 15 8.75 15zm3.75 7.812c0 .513-.425.938-.937.938H5.938c-.513 0-.938-.425-.938-.938v-.462C5 21.05 6.175 20 7.625 20h2.25c1.45 0 2.625 1.05 2.625 2.35v.462zM27.812 0H2.188C.98 0 0 .981 0 2.187v3.125C0 6.52.981 7.5 2.188 7.5h25.625C29.019 7.5 30 6.519 30 5.312V2.187C30 .981 29.02 0 27.812 0z" transform="translate(0 1.25)"/>
                        </g>
                    </g>
                </g>
            </g>
        </g>
    </g>
</svg>
