<svg xmlns="http://www.w3.org/2000/svg" width="14" height="11" viewBox="0 0 14 11">
    <g fill="none" fill-rule="evenodd">
        <g fill="#FFF" stroke="#FFF" stroke-width=".3">
            <g>
                <g>
                    <g>
                        <path d="M11.837 3.734L8.266.164c-.218-.218-.572-.218-.79 0-.217.217-.217.57 0 .789l2.619 2.618H.558c-.308 0-.558.25-.558.558 0 .308.25.558.558.558h9.537L7.477 7.305c-.218.218-.218.572 0 .79.108.108.251.163.394.163.143 0 .286-.055.395-.163l3.57-3.571c.219-.218.219-.572 0-.79h0z" transform="translate(-1357 -29) translate(50 15) translate(1224) translate(84 15.871)"/>
                    </g>
                </g>
            </g>
        </g>
    </g>
</svg>
