<?xml version="1.0" encoding="UTF-8" standalone="no"?>
<!DOCTYPE svg PUBLIC "-//W3C//DTD SVG 1.1//EN" "http://www.w3.org/Graphics/SVG/1.1/DTD/svg11.dtd">
<svg width="100%" height="100%" viewBox="0 0 30 30" version="1.1" xmlns="http://www.w3.org/2000/svg" xmlns:xlink="http://www.w3.org/1999/xlink" xml:space="preserve" xmlns:serif="http://www.serif.com/" style="fill-rule:evenodd;clip-rule:evenodd;stroke-linejoin:round;stroke-miterlimit:1.41421;">
    <g>
        <path d="M28.019,9.48C27.377,8.838 26.356,8.797 25.666,9.36C25.566,9.441 25.644,9.37 24.124,10.889L28.068,14.833L29.486,13.433C30.171,12.748 30.171,11.633 29.486,10.947L28.019,9.48ZM16.036,19.052L13.716,24.024C13.559,24.359 13.629,24.756 13.89,25.018C14.152,25.279 14.549,25.348 14.883,25.193L19.855,22.873C20.052,22.78 19.457,23.338 26.818,16.068L22.881,12.132C15.583,19.43 16.129,18.852 16.036,19.052Z" style="fill:rgb(203,203,203);"/>
        <path d="M21.336,23.952C21.121,24.165 20.873,24.337 20.599,24.465L15.626,26.785C14.649,27.242 13.454,27.068 12.647,26.26C11.866,25.48 11.655,24.282 12.122,23.28L14.442,18.309C14.572,18.029 14.749,17.777 14.967,17.559L22.442,10.085L22.442,2.637C22.442,1.183 21.259,0 19.805,0L2.637,0C1.183,0 0,1.183 0,2.637L0,27.364C0,28.818 1.183,30.001 2.637,30.001L19.805,30.001C21.259,30.001 22.442,28.818 22.442,27.364L22.442,22.86L21.336,23.952ZM4.688,5.684L17.813,5.684C18.298,5.684 18.692,6.077 18.692,6.563C18.692,7.048 18.298,7.442 17.812,7.442L4.689,7.442C4.203,7.442 3.809,7.048 3.809,6.562C3.809,6.077 4.203,5.684 4.689,5.684L4.688,5.684ZM4.688,10.371L15,10.371C15.486,10.371 15.88,10.765 15.88,11.251C15.88,11.736 15.486,12.129 15,12.129L4.688,12.129C4.202,12.129 3.808,11.736 3.808,11.25C3.808,10.765 4.202,10.371 4.688,10.371ZM3.808,15.938C3.808,15.453 4.202,15.059 4.688,15.059L12.188,15.059C12.673,15.059 13.067,15.453 13.067,15.938C13.067,16.423 12.673,16.817 12.187,16.817L4.687,16.817C4.202,16.817 3.809,16.423 3.809,15.938L3.808,15.938Z" style="fill:rgb(203,203,203);"/>
    </g>
</svg>
