<svg xmlns="http://www.w3.org/2000/svg" width="30" height="30" viewBox="0 0 30 30">
    <g fill="none" fill-rule="evenodd">
        <g>
            <g>
                <g>
                    <path fill="#009FFF" d="M28.019 9.48c-.642-.642-1.663-.683-2.353-.12-.1.081-.022.01-1.542 1.529l3.944 3.944 1.418-1.4c.685-.685.685-1.8 0-2.486L28.019 9.48zM16.036 19.052l-2.32 4.972c-.157.335-.087.732.174.994.262.261.659.33.993.175l4.972-2.32c.197-.093-.398.465 6.963-6.805l-3.937-3.936c-7.298 7.298-6.752 6.72-6.845 6.92z" transform="translate(-75 -126) translate(50 101) translate(25 25)"/>
                    <path fill="#110F57" d="M21.336 23.952c-.215.213-.463.385-.737.513l-4.973 2.32c-.977.457-2.172.283-2.979-.525-.781-.78-.992-1.978-.525-2.98l2.32-4.971c.13-.28.307-.532.525-.75l7.475-7.474V2.637C22.442 1.183 21.259 0 19.805 0H2.637C1.183 0 0 1.183 0 2.637v24.727c0 1.454 1.183 2.637 2.637 2.637h17.168c1.454 0 2.637-1.183 2.637-2.637V22.86l-1.106 1.092zM4.688 5.684h13.125c.485 0 .879.393.879.879 0 .485-.394.879-.88.879H4.689c-.486 0-.88-.394-.88-.88 0-.485.394-.878.88-.878zm0 4.687H15c.486 0 .88.394.88.88 0 .485-.394.878-.88.878H4.688c-.486 0-.88-.393-.88-.879 0-.485.394-.879.88-.879zm-.88 5.567c0-.485.394-.879.88-.879h7.5c.485 0 .879.394.879.879s-.394.879-.88.879h-7.5c-.485 0-.878-.394-.878-.879z" transform="translate(-75 -126) translate(50 101) translate(25 25)"/>
                </g>
            </g>
        </g>
    </g>
</svg>
