<svg xmlns="http://www.w3.org/2000/svg" width="35" height="35" viewBox="0 0 35 35">
    <g fill="none" fill-rule="evenodd">
        <g fill="#110F57">
            <g>
                <g>
                    <path d="M340.02 20.63c-4.861-4.862-12.173-6.317-18.526-3.685C315.142 19.575 311 25.775 311 32.65c0 6.876 4.142 13.074 10.494 15.705 6.353 2.632 13.665 1.177 18.527-3.685 6.639-6.638 6.639-17.402 0-24.04zm-3.86 7.276l-9.365 10.924-6.728-5.047c-.406-.303-.62-.8-.56-1.304.061-.503.386-.936.852-1.134.466-.199 1.003-.133 1.408.172l4.605 3.453 7.636-8.908c.33-.385.839-.564 1.336-.471.498.093.908.445 1.076.922.168.477.068 1.008-.26 1.393z" transform="translate(-691 -199) translate(380 184) translate(.5)"/>
                </g>
            </g>
        </g>
    </g>
</svg>
