<svg xmlns="http://www.w3.org/2000/svg" xmlns:xlink="http://www.w3.org/1999/xlink" width="30" height="30" viewBox="0 0 30 30">
    <defs>
        <path id="rvw6uf70ga" d="M0 0H30V30H0z"/>
    </defs>
    <g fill="none" fill-rule="evenodd">
        <g>
            <g transform="translate(-75 -411) translate(75 411)">
                <mask id="uv91oa43rb" fill="#fff">
                    <use xlink:href="#rvw6uf70ga"/>
                </mask>
                <g fill="#D6D6D6" mask="url(#uv91oa43rb)">
                    <g>
                        <path d="M9.444 8.672h3.169c.557-1.156-.286-2.52-1.585-2.52-1.296 0-2.143 1.361-1.584 2.52z" transform="translate(2.076)"/>
                        <path d="M11.028 4.395c2.24 0 3.918 2.077 3.433 4.277h4.477V6.738c0-.323-.262-.586-.586-.586H17.17c-.135-.471-.323-.92-.557-1.341l.837-.837c.229-.229.229-.6 0-.829l-1.657-1.657c-.23-.229-.6-.229-.829 0l-.837.837c-.42-.234-.87-.422-1.341-.557V.586c0-.324-.263-.586-.586-.586H9.856c-.324 0-.586.262-.586.586v1.183c-.472.134-.92.322-1.341.556l-.837-.837c-.229-.229-.6-.229-.829 0L4.606 3.145c-.229.23-.229.6 0 .83l.837.836c-.234.42-.422.87-.557 1.341H3.704c-.324 0-.586.263-.586.586v1.934h4.48c-.49-2.206 1.196-4.277 3.43-4.277zM25.7 18.613l-3.45-5.158c-.059-1.044-.268-2.056-.625-3.025H.645c-1.98 5.373.727 11.57 6.388 13.579v5.112c0 .485.393.879.879.879h10.02c.485 0 .878-.394.878-.879V24.61h2.579c.485 0 .878-.393.878-.879v-3.75h2.702c.7 0 1.12-.784.73-1.367z" transform="translate(2.076)"/>
                    </g>
                </g>
            </g>
        </g>
    </g>
</svg>
