<svg xmlns="http://www.w3.org/2000/svg" xmlns:xlink="http://www.w3.org/1999/xlink" width="18" height="18" viewBox="0 0 18 18">
    <defs>
        <path id="jmj029h7na" d="M0 0H18V18H0z"/>
    </defs>
    <g fill="none" fill-rule="evenodd">
        <g>
            <g>
                <g transform="translate(-1372 -3761) translate(0 3641) translate(1372 120)">
                    <mask id="b93qv4atab" fill="#fff">
                        <use xlink:href="#jmj029h7na"/>
                    </mask>
                    <path fill="#110F57" d="M17.995 18H18v-6.602c0-3.23-.695-5.718-4.47-5.718-1.816 0-3.034.996-3.531 1.94h-.053V5.983h-3.58v12.017h3.728v-5.95c0-1.567.297-3.082 2.237-3.082 1.912 0 1.94 1.788 1.94 3.182V18h3.724zM.297 5.983L4.029 5.983 4.029 18 .297 18zM2.162 0C.968 0 0 .968 0 2.162c0 1.193.968 2.181 2.162 2.181 1.193 0 2.161-.988 2.161-2.181C4.323.968 3.354 0 2.161 0z" mask="url(#b93qv4atab)"/>
                </g>
            </g>
        </g>
    </g>
</svg>
