<?xml version="1.0" encoding="UTF-8" standalone="no"?>
<!DOCTYPE svg PUBLIC "-//W3C//DTD SVG 1.1//EN" "http://www.w3.org/Graphics/SVG/1.1/DTD/svg11.dtd">
<svg width="100%" height="100%" viewBox="0 0 24 24" version="1.1" xmlns="http://www.w3.org/2000/svg" xmlns:xlink="http://www.w3.org/1999/xlink" xml:space="preserve" xmlns:serif="http://www.serif.com/" style="fill-rule:evenodd;clip-rule:evenodd;stroke-linejoin:round;stroke-miterlimit:1.41421;">
    <g transform="matrix(1,0,0,1,5,2.81013)">
        <path d="M7,0C3.14,0 0,3.14 0,7C0,8.527 0.482,9.979 1.396,11.196L6.569,18.162C6.581,18.179 6.601,18.186 6.616,18.201C6.874,18.478 7.247,18.408 7.431,18.162C8.921,16.175 11.651,12.464 12.701,11.064L12.701,11.062L12.707,11.053C13.553,9.865 14,8.463 14,7C14,3.14 10.86,0 7,0ZM7,10.776C4.922,10.776 3.224,9.078 3.224,7C3.224,4.922 4.922,3.224 7,3.224C9.078,3.224 10.776,4.922 10.776,7C10.776,9.078 9.078,10.776 7,10.776Z" style="fill:rgb(17,15,87);"/>
    </g>
</svg>
