<svg xmlns="http://www.w3.org/2000/svg" width="136" height="39" viewBox="0 0 136 39">
    <g fill="none" fill-rule="evenodd">
        <g>
            <g>
                <g>
                    <g fill="#323441" font-family="CircularStd-Medium, Circular Std" font-size="28" font-weight="400">
                        <text transform="translate(-50 -16) translate(50 15) translate(0 1.127) translate(45 3.873)">
                            <tspan x="0" y="28">hubura</tspan>
                        </text>
                    </g>
                    <g transform="translate(-50 -16) translate(50 15) translate(0 1.127)">
                        <path fill="#110F57" d="M17.5 0C27.165 0 35 7.835 35 17.5c0 6.443-5.719 13.192-17.157 20.245C5.948 30.692 0 23.943 0 17.5 0 7.835 7.835 0 17.5 0zm.343 5.147c-6.443 0-11.667 5.223-11.667 11.667 0 6.443 5.224 11.666 11.667 11.666S29.51 23.257 29.51 16.814c0-6.444-5.224-11.667-11.667-11.667z"/>
                        <circle cx="17.843" cy="17.843" r="2.745" fill="#00005C"/>
                        <path fill="#009FFF" d="M17.5 9.608c3.98 0 7.206 3.226 7.206 7.206 0 3.98-3.226 7.206-7.206 7.206-3.98 0-7.206-3.227-7.206-7.206 0-3.98 3.226-7.206 7.206-7.206zm.343 5.49c-1.516 0-2.745 1.23-2.745 2.745 0 1.516 1.229 2.745 2.745 2.745s2.745-1.229 2.745-2.745-1.23-2.745-2.745-2.745z"/>
                    </g>
                </g>
            </g>
        </g>
    </g>
</svg>
