<svg width="14" height="24" viewBox="0 0 14 24" fill="none" xmlns="http://www.w3.org/2000/svg">
<path fill-rule="evenodd" clip-rule="evenodd" d="M6.96181 0L1.75671 5.78344L3.24329 7.12137L6 4.05837V10.0233C2.60771 10.5085 0 13.4259 0 16.9524C0 20.8184 3.13401 23.9524 7 23.9524C10.866 23.9524 14 20.8184 14 16.9524C14 13.4259 11.3923 10.5085 8 10.0233V3.86662L10.7929 6.65951L12.2071 5.2453L6.96181 0ZM12 16.9524C12 19.7138 9.76142 21.9524 7 21.9524C4.23858 21.9524 2 19.7138 2 16.9524C2 14.191 4.23858 11.9524 7 11.9524C9.76142 11.9524 12 14.191 12 16.9524Z" fill="black"/>
</svg>
