<svg xmlns="http://www.w3.org/2000/svg" xmlns:xlink="http://www.w3.org/1999/xlink" width="30" height="30" viewBox="0 0 30 30">
    <defs>
        <path id="j2h51eu91a" d="M0 0H30V30H0z"/>
    </defs>
    <g fill="none" fill-rule="evenodd">
        <g>
            <g>
                <g transform="translate(-75 -506) translate(50 481) translate(25 25)">
                    <mask id="6lmku31l4b" fill="#fff">
                        <use xlink:href="#j2h51eu91a"/>
                    </mask>
                    <g mask="url(#6lmku31l4b)">
                        <g fill="#D6D6D6">
                            <path d="M12.306 14.064L14.064 14.064 14.064 15.822 12.306 15.822zM1.78 12.3h14.94c.313-4.777 4.983-8.089 9.65-6.717V4.395c0-.486-.394-.88-.88-.88h-7.909V.88c0-.485-.393-.879-.879-.879H9.667c-.485 0-.879.394-.879.879v2.637H.88c-.485 0-.879.393-.879.879v6.39c.139.857.884 1.515 1.78 1.515zm8.766-10.542h5.277v1.758h-5.277V1.758z" transform="translate(0 1.23)"/>
                            <path d="M20.422 19.302c-1.86-1.094-3.239-2.98-3.615-5.244h-.985V16.7c0 .485-.394.879-.88.879h-3.515c-.486 0-.88-.394-.88-.88v-2.642H1.782c-.649 0-1.257-.176-1.781-.48V25.11c0 .485.394.879.879.879h19.576c-.06-.463-.021-.175-.033-6.687zM28.312 8.722c-2.25-2.25-5.912-2.25-8.163 0-2.962 2.963-1.864 8 2.03 9.475v2.022h4.103v-2.022c3.893-1.474 4.993-6.512 2.03-9.475zm-4.081 8.093c-2.222 0-4.012-1.789-4.012-4.011 0-2.222 1.79-4.011 4.012-4.011 2.221 0 4.011 1.789 4.011 4.01 0 2.222-1.789 4.012-4.011 4.012zM22.18 25.49c0 1.131.92 2.051 2.05 2.051 1.132 0 2.052-.92 2.052-2.05v-3.513H22.18v3.513z" transform="translate(0 1.23)"/>
                        </g>
                    </g>
                </g>
            </g>
        </g>
    </g>
</svg>
