<svg xmlns="http://www.w3.org/2000/svg" xmlns:xlink="http://www.w3.org/1999/xlink" width="30" height="30" viewBox="0 0 30 30">
    <defs>
        <path id="5jyer73sca" d="M0 0H30V30H0z"/>
    </defs>
    <g fill="none" fill-rule="evenodd">
        <g>
            <g>
                <g transform="translate(-75 -316) translate(50 291) translate(25 25)">
                    <mask id="1goaz44xbb" fill="#fff">
                        <use xlink:href="#5jyer73sca"/>
                    </mask>
                    <path fill="#D6D6D6" d="M16.552 25.015v-2.062H0v2.07c0 1.876 1.515 3.425 3.39 3.425h14.83c-.142-.129-.28-.242-.409-.372-.81-.813-1.263-1.914-1.26-3.061zM11.72 12.512l2.401 1.65 2.411-1.65c.66-.45 1.184-1.465 1.184-2.263V6.842l-3.589-1.775-3.588 1.77v3.412c0 .798.52 1.813 1.18 2.263zm.54-3.22c.178-.176.464-.175.64.003l.721.728 1.736-1.736c.177-.176.464-.176.64 0 .177.178.177.464 0 .641l-2.057 2.059c-.085.085-.2.133-.32.134h-.001c-.121-.001-.236-.05-.32-.136l-1.042-1.052c-.176-.178-.175-.465.003-.641zM27.6 1.552h-.013c-1.33 0-2.436 1.11-2.436 2.441v4.154H30V3.985c.006-1.333-1.066-2.42-2.4-2.433z" mask="url(#1goaz44xbb)"/>
                    <path fill="#D6D6D6" d="M6.948 1.552c-1.257 0-2.28 1.01-2.28 2.248l-.134 18.247h12.47c.254.01.454.22.453.474v2.494c-.005 1.885 1.515 3.42 3.4 3.433h.012c1.878-.013 3.39-1.547 3.377-3.425V3.994c0-.951.428-1.796 1.071-2.442H6.948zm2.686 5.003c-.006-.17.087-.329.239-.406l4.053-1.992c.124-.062.27-.062.395 0l4.06 1.997c.152.078.245.236.24.406v3.69c0 1.097-.67 2.392-1.578 3.01l-2.659 1.823c-.074.052-.163.08-.253.08s-.178-.028-.252-.08l-2.667-1.823c-.907-.619-1.578-1.913-1.578-3.01V6.554zM20.56 19.978H8.147c-.25 0-.453-.202-.453-.452s.203-.453.453-.453H20.56c.25 0 .453.203.453.453s-.203.452-.453.452zm0-2.392H8.147c-.25 0-.453-.202-.453-.452s.203-.453.453-.453H20.56c.25 0 .453.203.453.453s-.203.452-.453.452z" mask="url(#1goaz44xbb)"/>
                </g>
            </g>
        </g>
    </g>
</svg>
