<svg xmlns="http://www.w3.org/2000/svg" width="331" height="396" viewBox="0 0 331 396">
    <defs>
        <linearGradient id="cdw7f8fnja" x1="116.1%" x2="10.339%" y1="109.008%" y2="18.609%">
            <stop offset="0%" stop-color="#DAE3FE"/>
            <stop offset="100%" stop-color="#E9EFFD"/>
        </linearGradient>
        <linearGradient id="5gegqc7cnb" x1=".036%" x2="100.021%" y1="49.991%" y2="49.991%">
            <stop offset="0%" stop-color="#DAE3FE"/>
            <stop offset="100%" stop-color="#E9EFFD"/>
        </linearGradient>
        <linearGradient id="2tlrsvferc" x1="36.636%" x2="63.364%" y1="0%" y2="85.235%">
            <stop offset="0%" stop-color="#110F57"/>
            <stop offset="100%" stop-color="#0B65B2"/>
        </linearGradient>
        <linearGradient id="esd2ubqlzd" x1="70.211%" x2="36.254%" y1="12.238%" y2="77.055%">
            <stop offset="0%" stop-color="#FF928E"/>
            <stop offset="100%" stop-color="#FE7062"/>
        </linearGradient>
        <linearGradient id="4cfw5i941e" x1="73.944%" x2="43.805%" y1="-4.759%" y2="64.166%">
            <stop offset="0%" stop-color="#FF928E"/>
            <stop offset="100%" stop-color="#FE7062"/>
        </linearGradient>
        <linearGradient id="o57zqlfpwf" x1="252.851%" x2="-117.054%" y1="30.341%" y2="65.55%">
            <stop offset="0%" stop-color="#4F52FF"/>
            <stop offset="100%" stop-color="#4042E2"/>
        </linearGradient>
        <linearGradient id="07k9713ppg" x1="39.468%" x2="66.533%" y1="-84.305%" y2="238.947%">
            <stop offset="0%" stop-color="#FEBBBA"/>
            <stop offset="100%" stop-color="#FF928E"/>
        </linearGradient>
        <linearGradient id="6k19x8b1dh" x1="-12.515%" x2="238.983%" y1="45.68%" y2="62.604%">
            <stop offset="0%" stop-color="#4F52FF"/>
            <stop offset="100%" stop-color="#4042E2"/>
        </linearGradient>
        <linearGradient id="l52wu6vvmi" x1="45.001%" x2="64.396%" y1="-22.315%" y2="253.769%">
            <stop offset="0%" stop-color="#FEBBBA"/>
            <stop offset="100%" stop-color="#FF928E"/>
        </linearGradient>
        <linearGradient id="xk1jp4wr7j" x1="58.168%" x2="42.408%" y1="157.66%" y2="18.099%">
            <stop offset="0%" stop-color="#FEBBBA"/>
            <stop offset="100%" stop-color="#FF928E"/>
        </linearGradient>
        <linearGradient id="9nzcpa6wak" x1="5.542%" x2="180.891%" y1="35.276%" y2="106.593%">
            <stop offset="0%" stop-color="#FEBBBA"/>
            <stop offset="100%" stop-color="#FF928E"/>
        </linearGradient>
        <linearGradient id="29u7z0gmal" x1="-3902.62%" x2="-3965.777%" y1="-3461.464%" y2="-3517.584%">
            <stop offset="0%" stop-color="#FEBBBA"/>
            <stop offset="100%" stop-color="#FF928E"/>
        </linearGradient>
        <linearGradient id="48n6zdqm5m" x1="-13675.536%" x2="-13893.721%" y1="-11080.331%" y2="-11257.309%">
            <stop offset="0%" stop-color="#FEBBBA"/>
            <stop offset="100%" stop-color="#FF928E"/>
        </linearGradient>
        <linearGradient id="q73z41bo1n" x1="49.077%" x2="51.201%" y1=".779%" y2="100.191%">
            <stop offset="0%" stop-color="#FEBBBA"/>
            <stop offset="100%" stop-color="#FF928E"/>
        </linearGradient>
    </defs>
    <g fill="none" fill-rule="evenodd">
        <g>
            <g>
                <g>
                    <path fill="url(#cdw7f8fnja)" d="M286.576 339.844c-8.395 8.644-15.893 13.733-21.643 17.57-56.061 37.43-120.14 26.638-139.952 22.954-31.963-5.951-58.942-10.143-82.132-31.09-52.672-47.596-50.11-146.874-9.847-208.38 4.77-7.297 44.962-66.866 109.182-75.26 1.57-.202 2.74-.32 3.767-.426 9.93-1.063 71.493-6.612 121.686 35.446 7.19 6.022 18.75 16.873 29.471 33.44 39.212 60.56 39.342 154.348-10.532 205.746z" transform="translate(-149 -3156) translate(150 2845) matrix(-1 0 0 1 330 311)"/>
                    <g>
                        <path fill="#91B3FA" d="M24.378 184.91c12.232 1.7 26.874-12.398 30.994-27.087 4.24-15.113-5.514-20.77-6.67-41.326C47.39 93.14 59.327 88.903 65.478 56.95c1.394-7.214 9.423-48.93-4.026-55.85-12.445-6.4-44.986 16.047-49.355 42.555-3.105 18.904 10.403 25.953 6.719 47.986C15.582 110.97 4.105 111.927.81 130.583c-4.038 22.706 7.51 52.107 23.567 54.327z" transform="translate(-149 -3156) translate(150 2845) matrix(-1 0 0 1 330 311) translate(249.587 161.972)"/>
                        <path fill="#7D97F4" d="M25.582 190.518c-4.758-24.96-.72-64.15 3.507-92.63 4.581-30.841 10.355-56.11 10.414-56.357l1.027.236c-.059.248-5.82 25.492-10.39 56.286-4.215 28.398-8.242 67.457-3.519 92.277l-1.039.188z" transform="translate(-149 -3156) translate(150 2845) matrix(-1 0 0 1 330 311) translate(249.587 161.972)"/>
                        <g>
                            <path fill="#BDD0FB" d="M15.703 116.474c-14.64-7.32-20.037-33.191-11.925-41.775 5.478-5.798 13.566.07 21.182-5.975 9.718-7.71 2.244-21.797 9.67-40.358C40.96 12.567 56.51-2.534 65.79.358c9.717 3.023 15.208 26.591 7.19 40.96-5.206 9.352-13.424 9.943-15.054 18.574-1.9 10.025 8.17 14.417 8.383 24.1.378 17.404-31.242 42.164-50.606 32.482z" transform="translate(-149 -3156) translate(150 2845) matrix(-1 0 0 1 330 311) translate(249.587 161.972) translate(3.574 91.685)"/>
                            <path fill="#7D97F4" d="M23.65 122.992c-.083 0-.178-.012-.26-.06-.295-.141-.425-.483-.284-.779 18.573-39.956 23.45-86.041 23.497-86.502.035-.33.319-.567.65-.531.318.035.566.319.53.65-.047.46-4.935 46.734-23.59 86.88-.118.212-.331.33-.544.342z" transform="translate(-149 -3156) translate(150 2845) matrix(-1 0 0 1 330 311) translate(249.587 161.972) translate(3.574 91.685)"/>
                            <path fill="url(#5gegqc7cnb)" d="M61.858 47.305c-.06 0-.118-.012-.177-.059-.13-.094-.154-.271-.06-.39 5.94-7.899 12.481-19.718 9.86-31.195-1.559-6.837-5.68-10.355-5.715-10.379-.118-.094-.13-.283-.035-.401.094-.118.283-.13.401-.036.177.142 4.31 3.672 5.904 10.698 1.464 6.459.932 17.192-9.954 31.668-.059.059-.142.094-.224.094z" transform="translate(-149 -3156) translate(150 2845) matrix(-1 0 0 1 330 311) translate(249.587 161.972) translate(3.574 91.685)"/>
                            <path fill="#F0F0F0" d="M14.334 113.026c-.095 0-.178-.035-.237-.118C4.534 99.448 1.18 88.974 4.12 81.795c2.61-6.388 9.446-7.687 9.517-7.698.153-.024.295.07.33.224.024.153-.07.295-.224.33-.07.012-6.612 1.264-9.103 7.357-2.858 6.99.484 17.274 9.918 30.57.094.13.059.306-.07.39-.036.046-.095.058-.154.058z" transform="translate(-149 -3156) translate(150 2845) matrix(-1 0 0 1 330 311) translate(249.587 161.972) translate(3.574 91.685)"/>
                        </g>
                    </g>
                    <g>
                        <g>
                            <path fill="url(#2tlrsvferc)" fill-rule="nonzero" d="M200.477 20.91c-.047 62.08-.425 276.209-3.389 352.018-.319 8.037-4.817 14.353-10.284 14.471-27.074.549-126.315 1.083-170.51-2.876-9.21-.83-16.341-11.995-16.294-25.547.225-65.149 1.429-248.393 7.734-332.18C8.49 16.758 14.004 8.9 20.852 8.085 50.394 4.57 150.178-3.243 188.339 1.472c6.895.845 12.15 9.281 12.138 19.438z" transform="translate(-149 -3156) translate(150 2845) matrix(-1 0 0 1 330 311) translate(72.343)"/>
                            <path fill="url(#esd2ubqlzd)" d="M188.08 39.606c.578 50.13 2.23 216.872-.32 278.448-.366 9-5.336 16.147-11.464 16.503-25.256 1.467-111.355 3.855-148.253-1.528-6.648-.963-11.737-9.03-11.914-18.83-.968-51.152-3.613-206.448-1.145-267.327.39-9.712 5.656-17.51 12.268-18.193 27.334-2.832 118.888-8.852 150.272-5.471 5.88.638 10.449 7.725 10.555 16.398z" transform="translate(-149 -3156) translate(150 2845) matrix(-1 0 0 1 330 311) translate(72.343)"/>
                            <path fill="#FFF" d="M154.201 15.9c.508 45.793 1.972 198.118-.283 254.358-.33 8.23-4.723 14.745-10.154 15.081-22.363 1.346-98.603 3.518-131.286-1.391-5.88-.888-10.39-8.244-10.556-17.207C1.06 220.013-1.278 78.15.907 22.536 1.26 13.667 5.913 6.54 11.77 5.911c24.205-2.6 105.286-8.09 133.068-4.986 5.23.566 9.269 7.036 9.363 14.974z" opacity=".3" transform="translate(-149 -3156) translate(150 2845) matrix(-1 0 0 1 330 311) translate(72.343) translate(22.66 39.238)"/>
                        </g>
                        <path fill="url(#4cfw5i941e)" d="M173.096 84.806c0-4.805-3.897-8.702-8.702-8.702H37.347c-4.806 0-8.702 3.897-8.702 8.702v65.946c0 4.805 3.896 8.702 8.702 8.702h127.047c4.805 0 8.702-3.897 8.702-8.702V84.806z" transform="translate(-149 -3156) translate(150 2845) matrix(-1 0 0 1 330 311) translate(72.343)"/>
                        <g fill="#FFF" opacity=".9">
                            <path d="M26.65 53.3C11.948 53.3 0 41.337 0 26.65 0 11.96 11.96 0 26.65 0c14.687 0 26.648 11.961 26.648 26.65 0 14.688-11.949 26.65-26.649 26.65zm0-48.837c-12.233 0-22.187 9.954-22.187 22.187 0 12.232 9.954 22.186 22.186 22.186 12.233 0 22.186-9.954 22.186-22.186 0-12.233-9.953-22.187-22.186-22.187z" transform="translate(-149 -3156) translate(150 2845) matrix(-1 0 0 1 330 311) translate(72.343) translate(73.548 90.167)"/>
                            <path d="M13.301 36.91V17.758c0-2.042 2.232-3.317 3.991-2.267l16.14 9.576c1.725 1.028 1.725 3.519 0 4.546l-16.14 9.576c-1.76 1.04-3.99-.224-3.99-2.279z" transform="translate(-149 -3156) translate(150 2845) matrix(-1 0 0 1 330 311) translate(72.343) translate(73.548 90.167) matrix(-1 0 0 1 48.027 0)"/>
                        </g>
                        <g fill="#FFF" opacity=".7">
                            <path d="M142.585 48.377c0 1.77-1.476 3.2-3.424 3.2H3.531c-1.949 0-3.531-1.43-3.531-3.2v-.154C0 46.453 1.582 45 3.53 45h135.631c1.948 0 3.424 1.452 3.424 3.223v.154zM142.585 27.377c0 1.77-1.476 3.2-3.424 3.2H3.531c-1.949 0-3.531-1.43-3.531-3.2v-.154C0 25.453 1.582 24 3.53 24h135.631c1.948 0 3.424 1.452 3.424 3.223v.154zM142.585 3.377c0 1.771-1.476 3.2-3.424 3.2H3.531C1.581 6.577 0 5.148 0 3.377v-.154C0 1.453 1.582 0 3.53 0h135.631c1.948 0 3.424 1.452 3.424 3.223v.154zM142.585 69.064c0 1.77-1.476 3.2-3.424 3.2H3.531c-1.949 0-3.531-1.43-3.531-3.2v-.154c0-1.77 1.582-3.223 3.53-3.223h135.631c1.948 0 3.424 1.452 3.424 3.223v.154zM142.585 89.739c0 1.77-1.476 3.2-3.424 3.2H3.531c-1.949 0-3.531-1.43-3.531-3.2v-.154c0-1.771 1.582-3.223 3.53-3.223h135.631c1.948 0 3.424 1.452 3.424 3.223v.154zM142.585 110.425c0 1.771-1.476 3.2-3.424 3.2H3.531c-1.949 0-3.531-1.429-3.531-3.2v-.153c0-1.771 1.582-3.224 3.53-3.224h135.631c1.948 0 3.424 1.453 3.424 3.224v.153zM142.585 131.113c0 1.77-1.476 3.2-3.424 3.2H3.531c-1.949 0-3.531-1.43-3.531-3.2v-.154c0-1.771 1.582-3.223 3.53-3.223h135.631c1.948 0 3.424 1.452 3.424 3.223v.154zM142.585 151.787c0 1.772-1.476 3.2-3.424 3.2H3.531c-1.949 0-3.531-1.428-3.531-3.2v-.153c0-1.771 1.582-3.224 3.53-3.224h135.631c1.948 0 3.424 1.453 3.424 3.224v.153z" transform="translate(-149 -3156) translate(150 2845) matrix(-1 0 0 1 330 311) translate(72.343) translate(30.204 173.534)"/>
                        </g>
                        <path fill="#FFF" d="M107.613 62.337c0 1.712-1.382 3.093-3.094 3.093H33.297c-1.712 0-3.093-1.381-3.093-3.093v-.083c0-1.712 1.381-3.094 3.093-3.094h71.21c1.712 0 3.094 1.382 3.094 3.094v.083h.012z" opacity=".66" transform="translate(-149 -3156) translate(150 2845) matrix(-1 0 0 1 330 311) translate(72.343)"/>
                    </g>
                    <g transform="translate(-149 -3156) translate(150 2845) matrix(-1 0 0 1 330 311) translate(70.49 69.64)">
                        <circle cx="18.833" cy="18.833" r="18.833" fill="#009FFF"/>
                        <g fill="#FFF">
                            <path d="M4.935 6.648c0-.484-.39-.874-.873-.874H.874c-.484 0-.874.39-.874.874v13.909c0 .484.39.874.874.874h3.188c.484 0 .873-.39.873-.874V6.647zM15.74 5.774h-3.106V2.019C12.634.803 11.914 0 10.697 0h-.082C9.399 0 8.407.897 8.407 2.114L7.32 5.88c-.484 0-1.287.343-1.287.839v14.417c0 .484 1.205 1.133 1.689 1.133h8.005c1.819 0 3.224-1.736 3.224-3.566V9.127c.011-1.818-1.394-3.353-3.212-3.353z" transform="matrix(-1 0 0 1 28.279 5.927)"/>
                        </g>
                    </g>
                    <g transform="translate(-149 -3156) translate(150 2845) matrix(-1 0 0 1 330 311) translate(11.252 111.261)">
                        <circle cx="16.873" cy="16.873" r="16.873" fill="#009FFF"/>
                        <path fill="#FFF" d="M28.396 15.173L18.974 6.67c-.106-.094-.212-.118-.342-.059-.13.06-.165.19-.165.33v3.708C8.017 11.36 5.95 20.108 5.585 22.588c-.012.094.012.189.094.236.083.047.225.024.295-.035 4.948-4.735 11.654-3.92 12.48-3.802v4.758c0 .248.095.472.331.579.225.106.473.059.662-.107l8.961-8.1c.13-.118.201-.295.201-.472.012-.177-.07-.354-.213-.472z" transform="matrix(-1 0 0 1 34.192 0)"/>
                    </g>
                    <g transform="translate(-149 -3156) translate(150 2845) matrix(-1 0 0 1 330 311) translate(65.614 129.54)">
                        <circle cx="11.028" cy="11.028" r="11.028" fill="#009FFF"/>
                        <path fill="#FFF" d="M15.75 7.958c-1.192-1.18-3.07-.826-4.344.26-.19.154-.449.154-.638 0-1.299-1.05-3.164-1.381-4.345-.177-1.275 1.299-1.263 3.389.035 4.664l4.345 4.274c.201.19.52.19.709-.012l4.274-4.345c1.287-1.299 1.275-3.389-.035-4.664z"/>
                    </g>
                    <g>
                        <path fill="#FF2828" d="M53.936 0H7.556C3.39 0 0 3.377 0 7.557v11.902c0 4.168 3.377 7.557 7.557 7.557h14.322c.354 0 .685.212.826.531l5.94 13.177c.13.284.401.473.72.484.307.012.602-.153.744-.436l7.12-13.284c.153-.295.472-.484.802-.484h15.905c4.168 0 7.557-3.377 7.557-7.557V7.557C61.48 3.389 58.103 0 53.936 0z" transform="translate(-149 -3156) translate(150 2845) matrix(-1 0 0 1 330 311) translate(0 154.36)"/>
                        <path fill="#FFF" d="M16.247 8.667c-1.429-1.394-3.648-.98-5.172.307-.224.189-.53.189-.755.011-1.547-1.251-3.767-1.64-5.16-.212-1.523 1.547-1.5 4.026.047 5.55L10.38 19.4c.236.236.614.224.838-.012l5.077-5.172c1.523-1.547 1.5-4.026-.047-5.55z" transform="translate(-149 -3156) translate(150 2845) matrix(-1 0 0 1 330 311) translate(0 154.36)"/>
                        <g fill="#FFF">
                            <path d="M3.2 2.751L3.153 2.751.472 4.097 0 2.007 3.554.248 5.868.248 5.868 14.889 3.188 14.889 3.188 2.751zM10.922 14.89V13.2l1.735-1.593c3.448-3.2 5.066-4.96 5.09-6.896 0-1.31-.697-2.456-2.61-2.456-1.287 0-2.385.65-3.13 1.216l-.814-1.96C12.256.661 13.85 0 15.703 0c3.248 0 4.818 2.055 4.818 4.44 0 2.562-1.842 4.64-4.392 7.002l-1.287 1.098v.047h6.01v2.302h-9.93zM32.293 2.55h-5.62l-.426 2.929c.343-.048.626-.071 1.063-.071 1.287 0 2.562.295 3.554.944 1.098.697 1.913 1.937 1.913 3.72 0 2.798-2.314 5.065-5.927 5.065-1.689 0-3.106-.425-3.873-.862l.567-2.09c.625.343 1.889.768 3.223.768 1.618 0 3.176-.921 3.176-2.68 0-1.665-1.24-2.775-4.168-2.775-.815 0-1.417.047-2.007.13l.968-7.392h7.569V2.55h-.012z" transform="translate(-149 -3156) translate(150 2845) matrix(-1 0 0 1 330 311) translate(0 154.36) matrix(-1 0 0 1 55.695 5.715)"/>
                        </g>
                        <g>
                            <path fill="#009FFF" d="M32.099 39.072s-8.69 8.242-11.56 22.895c-2.869 14.653-9.693-20.71-9.693-20.71H3.95S1.353 77.695 20.811 80.599c3.708.555 7.439-.92 9.753-3.86 3.554-4.511 9.103-12.54 10.438-20.203-1.146-12.08-8.903-17.464-8.903-17.464z" transform="translate(-149 -3156) translate(150 2845) matrix(-1 0 0 1 330 311) translate(0 154.36) translate(22.486 31.1)"/>
                            <path fill="#110F57" d="M76.27 207.826c0-.106 0-.212-.035-.33-1.63-6.47-8.3-9.777-8.3-9.777l-3.212.248c-1.842 5.703-3.035 8.478-2.74 10.036.012.048.024.083.036.13 2.657.236 8.1.39 14.251-.307z" transform="translate(-149 -3156) translate(150 2845) matrix(-1 0 0 1 330 311) translate(0 154.36) translate(22.486 31.1)"/>
                            <path fill="url(#o57zqlfpwf)" d="M62.031 208.133c.142.52.531.921 1.015 1.028 3.767.79 9.741.153 12.256-.178.555-.07.957-.59.969-1.169-6.152.709-11.595.555-14.24.32z" transform="translate(-149 -3156) translate(150 2845) matrix(-1 0 0 1 330 311) translate(0 154.36) translate(22.486 31.1)"/>
                            <path fill="url(#07k9713ppg)" d="M70.58 192.724l-1.406 6.766c-.106.496-.484.862-.944.91-.567.047-1.37.082-2.173-.036-.72-.106-1.228-.838-1.098-1.63l.98-5.998h4.64v-.012z" transform="translate(-149 -3156) translate(150 2845) matrix(-1 0 0 1 330 311) translate(0 154.36) translate(22.486 31.1)"/>
                            <path fill="url(#6k19x8b1dh)" d="M34.78 208.074c3.424-.094 5.195-.496 6.116-.874 0 .343 0 .685-.012 1.051-.012.378-.295.685-.65.685l-18.808-.118c-.602 0-.957-.697-.697-1.252 2.468.201 8.75.662 14.05.508z" transform="translate(-149 -3156) translate(150 2845) matrix(-1 0 0 1 330 311) translate(0 154.36) translate(22.486 31.1)"/>
                            <path fill="#110F57" d="M20.729 207.566l.07-.141c1.665-2.326 5.892-6.943 14.252-8.95l4.015-.13s1.782 3.105 1.818 8.855c-.921.378-2.692.78-6.116.874-5.29.154-11.572-.307-14.04-.508z" transform="translate(-149 -3156) translate(150 2845) matrix(-1 0 0 1 330 311) translate(0 154.36) translate(22.486 31.1)"/>
                            <path fill="url(#l52wu6vvmi)" d="M39.81 192.276c-.048.295-.59 4.84-.803 6.6-.047.413-.354.744-.732.791-.685.083-1.783.154-2.751-.047-.52-.106-.898-.602-.898-1.193v-7.131l5.184.98z" transform="translate(-149 -3156) translate(150 2845) matrix(-1 0 0 1 330 311) translate(0 154.36) translate(22.486 31.1)"/>
                            <path fill="#110F57" d="M67.9 103.955s6.41 57.042 2.857 92.69c0 0-4.275 0-6.412-.709 0 0-6.67-55.767-8.82-71.73-.082-.603-.944-.627-1.062-.036-2.68 13.425-13.13 66.075-14.37 71.046 0 0-3.566 1.429-6.411 0 0 0 5.703-76.289 9.977-89.844l24.24-1.417z" transform="translate(-149 -3156) translate(150 2845) matrix(-1 0 0 1 330 311) translate(0 154.36) translate(22.486 31.1)"/>
                            <path fill="#009FFF" d="M80.734 37.644s-27.098-4.275-48.481 1.428l1.428 22.104s5.703 30.664 9.978 44.208c0 0 16.4 2.857 24.24-1.43 0 .001 6.411-38.504 9.977-44.207 0 0 3.566-14.972 2.858-22.103z" transform="translate(-149 -3156) translate(150 2845) matrix(-1 0 0 1 330 311) translate(0 154.36) translate(22.486 31.1)"/>
                            <path fill="url(#xk1jp4wr7j)" d="M61.913 18.161l2.704 18.255s-7.545 3.46-12.823-.154l1.133-12.882 8.986-5.219z" transform="translate(-149 -3156) translate(150 2845) matrix(-1 0 0 1 330 311) translate(0 154.36) translate(22.486 31.1)"/>
                            <path fill="#009FFF" d="M80.733 37.644s42.07 45.636-7.485 63.1v-3.567s18.537-15.68 4.274-37.075c0 0 1.783-20.321 3.211-22.458z" transform="translate(-149 -3156) translate(150 2845) matrix(-1 0 0 1 330 311) translate(0 154.36) translate(22.486 31.1)"/>
                            <path fill="url(#9nzcpa6wak)" d="M72.893 97.532s-6.41-4.275-9.268-2.858c-2.858 1.43-2.858 3.566-2.858 3.566s1.429 2.858 3.566 2.137c2.137-.708 7.132.709 9.269 0 0 .012.708-2.845-.709-2.845z" transform="translate(-149 -3156) translate(150 2845) matrix(-1 0 0 1 330 311) translate(0 154.36) translate(22.486 31.1)"/>
                            <g>
                                <path fill="url(#29u7z0gmal)" d="M4.232 8.585c-.059.19.307 10.533.543 16.932.095 2.645 2.48 4.617 5.09 4.216l2.396-.366c4.404-.674 7.569-4.582 7.309-9.033l-.673-11.548c0 .012-13.295-4.735-14.665-.2z" transform="translate(-149 -3156) translate(150 2845) matrix(-1 0 0 1 330 311) translate(0 154.36) translate(22.486 31.1) translate(41.73)"/>
                                <path fill="#110F57" d="M21.459 8.29c.661-1.322 1.074-3.318-1.275-4.817-2.374-1.524-4.487-.567-5.75.377-.567.425-1.358.46-1.913.024-.248-.189-.579-.283-.992-.142-.803.272-1.641-.118-1.913-.92-.46-1.37-1.57-2.858-4.144-2.81C.737.095-.562 5.125.206 8.301c.767 3.176 5.892 2.786 8.607 1.653 1.996-.838 4.18.614 5.196 1.429.366.295.578.755.566 1.228l-.059 3.247c.709.85 1.405 1.735 2.279 2.397.626.484 1.252.696 1.866.708.507-1.76 2.822-2.527 3.92-2.798.413-.107.767-.378.98-.756.625-1.134 1.476-3.53-1.464-5.09-.744-.377-1.004-1.298-.638-2.03z" transform="translate(-149 -3156) translate(150 2845) matrix(-1 0 0 1 330 311) translate(0 154.36) translate(22.486 31.1) translate(41.73)"/>
                                <path fill="url(#48n6zdqm5m)" d="M18.53 22.46s-1.086-5.598 1.051-6.601c2.15-1.004 4.936.106 3.708 3.86-1.512 4.665-4.759 2.74-4.759 2.74z" transform="translate(-149 -3156) translate(150 2845) matrix(-1 0 0 1 330 311) translate(0 154.36) translate(22.486 31.1) translate(41.73)"/>
                                <path fill="#91B3FA" d="M1.41 8.337c-.059 0-.118-.035-.141-.094C-.408 4.665 3.5 1.796 3.536 1.773c.07-.048.177-.036.224.035.047.07.035.177-.035.224-.036.024-3.72 2.728-2.161 6.07.035.082 0 .176-.083.212-.023.011-.047.023-.07.023z" transform="translate(-149 -3156) translate(150 2845) matrix(-1 0 0 1 330 311) translate(0 154.36) translate(22.486 31.1) translate(41.73)"/>
                            </g>
                            <path fill="#110F57" d="M1.736.045l9.056 3.046c1.098.33 1.854 1.44 1.936 2.846l-.472 15.102c.142 2.361-1.807 4.451-3.648 3.896l-7.262-2.468c-.708-.212-1.18-.956-1.18-1.865L0 1.792C0 .694.897-.215 1.736.045z" transform="translate(-149 -3156) translate(150 2845) matrix(-1 0 0 1 330 311) translate(0 154.36) translate(22.486 31.1) translate(1.79 18.164)"/>
                            <path fill="url(#q73z41bo1n)" d="M1.802 37.644S-1.032 28.564.408 27.04c1.44-1.535 4.31-5.75 4.499-2.302.189 3.448 1.924 18.337-3.105 12.906z" transform="translate(-149 -3156) translate(150 2845) matrix(-1 0 0 1 330 311) translate(0 154.36) translate(22.486 31.1)"/>
                        </g>
                    </g>
                    <g transform="translate(-149 -3156) translate(150 2845) matrix(-1 0 0 1 330 311) translate(30.947 64.917)">
                        <circle cx="14.039" cy="14.039" r="14.039" fill="#009FFF"/>
                        <path fill="#FFF" d="M8.501 16.495l-.65-4.558-2.36-.047.649 4.534-2.314-.059-.638-4.522-2.503-.047v-2.29l2.113.035-.413-2.822L0 6.695V4.369l2.03.012L1.37.01h2.278l.673 4.381 2.35.012L6.021 0h2.315l.65 4.416 2.597.012V6.8l-2.232-.023.414 2.857 2.55.035v2.35l-2.125-.035.685 4.57-2.374-.06zM7.438 9.6l-.413-2.845-2.35-.024.414 2.834 2.35.035z" transform="translate(7.58 6.022)"/>
                    </g>
                </g>
            </g>
        </g>
    </g>
</svg>
