<svg xmlns="http://www.w3.org/2000/svg" xmlns:xlink="http://www.w3.org/1999/xlink" width="76" height="75" viewBox="0 0 76 75">
    <defs>
        <path id="0krv8ao4ia" d="M0 0H75V75H0z"/>
    </defs>
    <g fill="none" fill-rule="evenodd">
        <g>
            <g transform="translate(-1062 -786) translate(1062.5 786)">
                <mask id="3156ibvw7b" fill="#fff">
                    <use xlink:href="#0krv8ao4ia"/>
                </mask>
                <g mask="url(#3156ibvw7b)">
                    <g>
                        <path fill="#009FFF" d="M67.124 58.706c-1.234-1.234-2.876-1.808-4.496-1.713l-4.338-4.339c1.76-2.248 3.214-4.716 4.338-7.373 1.698-4.024 2.563-8.292 2.563-12.686 0-4.393-.865-8.67-2.563-12.686-1.642-3.882-3.992-7.364-6.987-10.36-2.995-2.994-6.477-5.344-10.36-6.987C41.257.865 36.99 0 32.595 0c-4.393 0-8.67.865-12.686 2.562-3.882 1.635-7.364 3.985-10.36 6.98-2.994 2.995-5.344 6.477-6.987 10.36C.865 23.925 0 28.193 0 32.587c0 4.393.865 8.67 2.562 12.686 1.643 3.882 3.993 7.364 6.988 10.359 2.995 2.995 6.477 5.345 10.36 6.988 4.024 1.697 8.292 2.562 12.685 2.562 4.394 0 8.67-.865 12.686-2.562 2.689-1.14 5.188-2.61 7.46-4.41l4.33 4.33c-.086 1.62.48 3.263 1.714 4.497l6.154 6.154c1.148 1.148 2.657 1.73 4.166 1.73 1.51 0 3.018-.574 4.166-1.73 2.303-2.303 2.303-6.036 0-8.34l-6.147-6.146zM52.678 47.034c-.779 1.07-1.643 2.09-2.594 3.042-.928.927-1.918 1.768-2.956 2.523-4.197 3.065-9.243 4.716-14.54 4.716-6.61 0-12.82-2.57-17.489-7.247C10.43 45.4 7.852 39.182 7.852 32.58c0-6.603 2.57-12.82 7.247-17.489 4.669-4.669 10.886-7.247 17.488-7.247 6.603 0 12.82 2.57 17.489 7.247 4.669 4.669 7.247 10.886 7.247 17.489.008 5.266-1.62 10.273-4.645 14.454z" transform="translate(0 .04)"/>
                        <g fill="#110F57">
                            <path d="M18.007 3.93h4.52c1.414 0 2.586 1.116 2.806 2.562h3.953C29.035 2.87 26.103 0 22.526 0h-4.519c-3.576 0-6.508 2.869-6.76 6.492h3.954c.212-1.454 1.391-2.562 2.806-2.562zM29.302 8.457H4.818c-1.194 0-2.538 1.14-3.27 1.855-.455.55-.542.928-.502 1.352.29 2.822 2.169 5.479 5.352 7.57 2.822 1.847 6.367 3.065 10.234 3.529 1.179.141 2.397.22 3.623.22 2.272 0 4.488-.252 6.563-.731 2.728-.63 5.212-1.65 7.302-3.019 3.184-2.09 5.054-4.755 5.353-7.569.047-.432-.189-1.053-.503-1.352-.731-.715-2.075-1.855-3.27-1.855h-6.398z" transform="translate(0 .04) translate(12.332 11.255)"/>
                            <path d="M35.857 21.866c-1.902 1.25-4.087 2.248-6.46 2.956-2.838.857-5.935 1.305-9.134 1.305-.228 0-.464 0-.692-.008-5.612-.11-10.878-1.612-14.902-4.253C2.97 20.75 1.564 19.477.464 18.07c-.268-.346-.464-.283-.464.15v10.956c0 2.775 2.154 5.03 4.81 5.03H35.7c.873 0 1.69-.243 2.39-.667 1.446-.865 2.42-2.492 2.42-4.363V18.227c0-.432-.196-.495-.463-.15-1.085 1.4-2.492 2.673-4.19 3.79z" transform="translate(0 .04) translate(12.332 11.255)"/>
                        </g>
                    </g>
                </g>
            </g>
        </g>
    </g>
</svg>
