<svg xmlns="http://www.w3.org/2000/svg" width="75" height="75" viewBox="0 0 75 75">
    <g fill="none" fill-rule="evenodd">
        <g>
            <g>
                <path fill="#110F57" d="M38.282 6.25h-3.437C33.814 2.656 30.5 0 26.563 0c-3.937 0-7.25 2.656-8.281 6.25h-3.438c-1.281 0-2.344 1.063-2.344 2.344v4.688c0 3 2.47 5.469 5.47 5.469h17.187c3 0 5.47-2.47 5.47-5.47V8.595c0-1.281-1.063-2.344-2.345-2.344z" transform="translate(-682 -786) translate(682 786)"/>
                <path fill="#110F57" d="M44.532 9.375h-.78v3.907c0 4.75-3.845 8.594-8.595 8.594H17.97c-4.75 0-8.594-3.844-8.594-8.594V9.375h-.781C3.844 9.375 0 13.22 0 17.97v39.064c0 4.75 3.844 8.594 8.594 8.594h23.063l.688-3.844c.312-1.75 1.125-3.313 2.375-4.594l2.5-2.5h-25.5c-1.282 0-2.345-1.062-2.345-2.344 0-1.281 1.063-2.343 2.344-2.343h29.688c.157 0 .282 0 .438.062h.031l11.25-11.25V17.969c0-4.75-3.843-8.594-8.594-8.594zm-3.125 35.158H11.72c-1.281 0-2.344-1.063-2.344-2.344 0-1.282 1.063-2.344 2.344-2.344h29.688c1.282 0 2.344 1.062 2.344 2.344 0 1.281-1.062 2.344-2.344 2.344zm0-10.157H11.72c-1.281 0-2.344-1.062-2.344-2.344 0-1.281 1.063-2.344 2.344-2.344h29.688c1.282 0 2.344 1.063 2.344 2.344 0 1.282-1.062 2.344-2.344 2.344z" transform="translate(-682 -786) translate(682 786)"/>
                <path fill="#009FFF" d="M39.148 75.002c-.615 0-1.215-.244-1.656-.687-.54-.541-.784-1.31-.65-2.066l1.656-9.39c.081-.473.313-.91.65-1.25l23.204-23.202c2.85-2.856 5.65-2.084 7.181-.553L73.4 41.72c2.135 2.131 2.135 5.6 0 7.735L50.195 72.658c-.337.341-.775.57-1.25.65l-9.39 1.657c-.135.025-.272.037-.407.037zm9.39-4h3.126-3.126z" transform="translate(-682 -786) translate(682 786)"/>
            </g>
        </g>
    </g>
</svg>
