<svg xmlns="http://www.w3.org/2000/svg" width="543" height="304" viewBox="0 0 543 304">
    <g fill="none" fill-rule="evenodd">
        <g>
            <g>
                <g>
                    <g>
                        <path fill="#EBF3FA" d="M40.694 299.863s-74.233-82.12-22.178-158.727c19.426-28.578 69.018-44.63 114.584-31.613 26.921 7.695 67.765 6.562 107.664-61.238C295.18-44.16 521.042-2.138 476.954 159.86c-18.563 68.228 50.639 71.348 16.366 140.153l-452.626-.15z" transform="translate(-840 -181) translate(-417.826 -237.107) translate(1258.385 418.507)"/>
                        <g fill="#D5E5FB">
                            <path d="M445.886 49.643L278.612 232.66l-88.034-98.064c-16.464 18.974-41.914 48.254-67.513 77.618-17.483 20.085-31.653 36.309-43.125 49.421L0 261.525c22.157-24.67 111.424-127.263 171.565-196.575l18.376-21.196 88.969 99.12L409.495 0l36.39 49.643z" transform="translate(-840 -181) translate(-417.826 -237.107) translate(1258.385 418.507) translate(51.296) translate(0 37.365)"/>
                            <path d="M388.336 14.89l79.665 104.51L490.498 0 388.336 14.89z" transform="translate(-840 -181) translate(-417.826 -237.107) translate(1258.385 418.507) translate(51.296)"/>
                        </g>
                        <g>
                            <g>
                                <g>
                                    <path fill="#B7D3F3" d="M14.606 57.13c-.265-6.503-.832-12.174-1.513-16.126-1.096-6.295-2.06-9.925-2.08-9.963-.15-.548-2.211-2.797-6.824-2.722-4.613.076-4.178 3.006-4.178 3.006 0 .095.019.19.038.265.038.151 4.272 15.483 4.083 35.295 0 .284-.038.757-.019 1.078 0 0 10.682.284 10.682 0 .378-1.74.189-6.541-.19-10.833z" transform="translate(-840 -181) translate(-417.826 -237.107) translate(1258.385 418.507) translate(136.084 198.02) translate(13.072)"/>
                                    <path fill="#D2E3FC" d="M15.948 66.772c0 .283-.151.491-.321.491s-.322-.226-.322-.491h-9.15c0 .283-.151.491-.321.491-.19 0-.322-.226-.322-.51.057-5.672-.264-10.965-.756-15.634-1.21-11.646-3.46-19.435-3.497-19.548-.02-.076-.038-.17-.038-.265 0 0-.435-2.93 4.178-3.006 4.613-.075 6.673 2.174 6.825 2.723 0 .037.567 2.08 1.304 5.766.246 1.228.51 2.627.775 4.196.68 3.952 1.248 9.623 1.513 16.126.359 4.31.51 7.94.132 9.66z" transform="translate(-840 -181) translate(-417.826 -237.107) translate(1258.385 418.507) translate(136.084 198.02) translate(13.072)"/>
                                    <path fill="#C5DCF8" d="M4.813 67.282h35.882s-.832-3.384-21.609-2.873c-14.708.34-14.273 2.873-14.273 2.873z" transform="translate(-840 -181) translate(-417.826 -237.107) translate(1258.385 418.507) translate(136.084 198.02) translate(13.072)"/>
                                    <path fill="#B7D3F3" d="M0 34.781C4.16 13.721 3.082.81 3.082.64c-.02-.321.586-.624.907-.624.321 0 1.758-.094 1.928.19C6.144.562 6.976 16.48.775 34.8H0v-.019z" transform="translate(-840 -181) translate(-417.826 -237.107) translate(1258.385 418.507) translate(136.084 198.02) translate(13.072) translate(1.901 67.797)"/>
                                    <path fill="#B7D3F3" d="M6.083 34.781C1.923 13.721 3.002.81 3.002.64 3.02.318 2.415.015 2.094.015 1.773.015.336-.079.166.205-.061.562-.893 16.48 5.308 34.8h.775v-.019z" transform="translate(-840 -181) translate(-417.826 -237.107) translate(1258.385 418.507) translate(136.084 198.02) translate(13.072) translate(29.318 67.797)"/>
                                    <path fill="#B7D3F3" d="M6.083 34.781C1.923 13.721 3.002.81 3.002.64 3.02.318 2.415.015 2.094.015 1.773.015.336-.079.166.205-.061.562-.893 16.48 5.308 34.8h.775v-.019z" transform="translate(-840 -181) translate(-417.826 -237.107) translate(1258.385 418.507) translate(136.084 198.02) translate(13.072) translate(35.954 67.797)"/>
                                    <path fill="#B7D3F3" d="M0 34.781C4.16 13.721 3.082.81 3.082.64c-.02-.321.586-.624.907-.624.321 0 1.758-.094 1.928.19C6.144.562 6.976 16.48.775 34.8H0v-.019z" transform="translate(-840 -181) translate(-417.826 -237.107) translate(1258.385 418.507) translate(136.084 198.02) translate(13.072) translate(8.575 67.797)"/>
                                    <path fill="#B7D3F3" d="M40.714 68.36H4.832c-.397 0-.737-.321-.737-.737v-.492c0-.397.321-.737.737-.737h35.882c.397 0 .737.321.737.737v.492c0 .397-.34.737-.737.737z" transform="translate(-840 -181) translate(-417.826 -237.107) translate(1258.385 418.507) translate(136.084 198.02) translate(13.072)"/>
                                    <g>
                                        <path fill="#FFB27D" d="M32.447 35.957l11.929-2.59.7 1.72s-13.158 7.827-14.387 7.449c-1.23-.397 1.758-6.58 1.758-6.58zM21.614 89.893c-.303.34-.34.718-.19 1.134.265.756 1.173 1.607 2.232 2.439.132.113.245.208.359.302l.075.076.057.056c.983.908.605 1.116 2.363 2.93 2.004 2.08 3.384 2.118 3.781 1.929.34-.17-.34-1.267-1.096-2.514-.038-.057-.076-.114-.114-.19-.094-.17-.189-.34-.302-.491-.87-1.493-.643-2.193-.435-4.424.17-1.815 2.817-10.114 2.817-10.114l-3.838-.662s-1.153 6.598-2.439 7.62c-.68.547-1.436.547-2.098.944-.038.02-.095.057-.132.095-.36.265-.738.53-1.04.87z" transform="translate(-840 -181) translate(-417.826 -237.107) translate(1258.385 418.507) translate(136.084 198.02) translate(13.072) translate(7)"/>
                                        <path fill="#1C468A" d="M21.614 89.893c-.303.34-.34.718-.19 1.134.341.756 1.21 1.588 2.232 2.439.132.113.245.208.359.302l.075.076.057.057c.983.907.605 1.115 2.363 2.93 2.004 2.08 3.384 2.117 3.781 1.928.34-.17-.34-1.266-1.096-2.514-.397-.151-2.193-.87-3.573-2.628-1.21-1.531-2.004-3.516-2.836-4.67-.038.02-.095.057-.132.095-.36.246-.738.51-1.04.85z" transform="translate(-840 -181) translate(-417.826 -237.107) translate(1258.385 418.507) translate(136.084 198.02) translate(13.072) translate(7)"/>
                                        <path fill="#FFB27D" d="M52.58 87.492c.247 1.19 1.93.983 3.82.53 1.89-.455 1.437.094 4.121-.209 2.685-.302 3.498-1.304 3.573-1.701.076-.36-1.248-.473-2.684-.643-.17-.019-.36-.038-.549-.057-1.607-.208-2.779-1.248-4.253-2.098-1.38-.813-3.441-4.103-3.441-4.103l-3.687.284s1.929 2.93 2.685 4.216c.435.756.416 1.739.36 2.514 0 .416-.039.85.056 1.267z" transform="translate(-840 -181) translate(-417.826 -237.107) translate(1258.385 418.507) translate(136.084 198.02) translate(13.072) translate(7)"/>
                                        <path fill="#1C468A" d="M56.38 88.02c1.891-.453 1.437.095 4.122-.207 2.685-.303 3.497-1.304 3.573-1.701.076-.36-1.248-.473-2.684-.643l-.02.019s-1.606 1.134-3.856 1.19c-1.815.038-3.762-.472-5.01-.453-.038.416-.057.85.038 1.267.265 1.19 1.966.983 3.838.529z" transform="translate(-840 -181) translate(-417.826 -237.107) translate(1258.385 418.507) translate(136.084 198.02) translate(13.072) translate(7)"/>
                                        <path fill="#FFB27D" d="M44.375 33.367s.87-2.156 1.853-2.231c.983-.076 4.046-.567 4.254-.132.227.434 0 2.022-.662 2.59-.662.567-4.745 1.493-4.745 1.493l-.7-1.72z" transform="translate(-840 -181) translate(-417.826 -237.107) translate(1258.385 418.507) translate(136.084 198.02) translate(13.072) translate(7)"/>
                                        <path fill="#163560" d="M38.458 63.936L30.518 85.3s-1.229.113-2.382-.227c-1.078-.303-2.306-1.116-2.306-1.116s1.966-20.511 5.577-24.784c3.592-4.272 7.051 4.764 7.051 4.764z" transform="translate(-840 -181) translate(-417.826 -237.107) translate(1258.385 418.507) translate(136.084 198.02) translate(13.072) translate(7)"/>
                                        <path fill="#1C468A" d="M7.038 55.278s22.818-7.714 27.904-6.069c5.085 1.645 20.36 32.044 20.36 32.044s-.34.454-1.285.813c-.87.321-2.987.303-2.987.303S37.248 70.553 35.604 67.093c-1.645-3.44-2.307-6.73-3.933-6.409-1.644.322-21.173 8.035-25.616 3.441-4.424-4.594-3.27-10.568-3.27-10.568l4.253 1.72z" transform="translate(-840 -181) translate(-417.826 -237.107) translate(1258.385 418.507) translate(136.084 198.02) translate(13.072) translate(7)"/>
                                        <path fill="#B5453C" d="M20.064.888C19.08.32 17.89.264 17.077.32c.208-.227.624-.303.624-.303-.51-.075-1.664.435-1.664.435-7.127-2.741-8.243 7.751-8.11 10.19.15 2.439.17 5.255-3.384 7.43-6.995 4.31-1.097 11.815-1.097 11.815.057.038 3.252 5.464 3.252 5.464-.19-1.966 8.923-12.383 13.668-15.483 1.153-1.702 1.57-4.708 1.588-4.935-.208 2.382-.605 3.725-.964 4.462 4.027-3.705 1.683-17.034-.926-18.508z" transform="translate(-840 -181) translate(-417.826 -237.107) translate(1258.385 418.507) translate(136.084 198.02) translate(13.072) translate(7)"/>
                                        <path fill="#FFB27D" d="M20.083 20.02c.019.019-2.287 1.21-4.027.737-1.644-.454-2.703-2.571-2.684-2.571.7-.132.888-1.097.87-5.18l.32.057 5.275 1.04s-.113 1.663-.132 3.213c0 1.324.076 2.571.378 2.704z" transform="translate(-840 -181) translate(-417.826 -237.107) translate(1258.385 418.507) translate(136.084 198.02) translate(13.072) translate(7)"/>
                                        <path fill="#ED975D" d="M19.837 14.103s-.113 1.663-.132 3.213c-2.95-.075-4.519-2.779-5.142-4.272l5.274 1.059z" transform="translate(-840 -181) translate(-417.826 -237.107) translate(1258.385 418.507) translate(136.084 198.02) translate(13.072) translate(7)"/>
                                        <path fill="#B5453C" d="M14.014 12.477s-1.55-2.439-1.91-4.537c-.264-1.494.492-7.014 6.05-6.22 0 0 1.607.151 3.139 1.19 1.21.814 2.949 2.572 1.002 7.393l-.51 1.625-7.77.549z" transform="translate(-840 -181) translate(-417.826 -237.107) translate(1258.385 418.507) translate(136.084 198.02) translate(13.072) translate(7)"/>
                                        <path fill="#FFB27D" d="M20.82 15.577s-6.976.113-6.976-4.235c0-4.348-.908-7.26 3.554-7.524 4.462-.265 5.331 1.4 5.672 2.855.34 1.455-.435 8.772-2.25 8.904z" transform="translate(-840 -181) translate(-417.826 -237.107) translate(1258.385 418.507) translate(136.084 198.02) translate(13.072) translate(7)"/>
                                        <path fill="#B5453C" d="M20.555 3.724s-1.91 5.104-4.84 5.86c-2.93.756-4.196-.038-4.196-.038s2.25-1.796 2.722-4.915c-.019 0 4.877-3.346 6.314-.907z" transform="translate(-840 -181) translate(-417.826 -237.107) translate(1258.385 418.507) translate(136.084 198.02) translate(13.072) translate(7)"/>
                                        <path fill="#B5453C" d="M20.083 4.14S21.5 5.274 21.86 6.39c.34 1.115.51 3.383 1.172 3.308 0 0 1.437-3.46-.17-5.426-1.72-2.099-2.78-.132-2.78-.132z" transform="translate(-840 -181) translate(-417.826 -237.107) translate(1258.385 418.507) translate(136.084 198.02) translate(13.072) translate(7)"/>
                                        <path fill="#AEC3FF" d="M4.543 38.792c-.68-2.892 1.645-8.488 4.102-13.12 2.212-4.197 4.518-7.618 4.726-7.486 5.842 3.478 6.371.586 6.371.586s5.313.7 6.825 3.29c1.872 3.213 3.876 12.193 5.88 13.895-.303.945-.17 1.436.15 2.609.077.245.152.491.228.718.302.813.68 1.493 1.002 2.06-1.021.625-2.987 1.797-4.424.946-2.212-1.286-3.932-5.237-4.896-6.787 0 0 0-.019-.02-.019-2.098 11.93.757 14.651-.699 15.9-1.531 1.323-3.724-.625-8.545 1.455C12.086 54.2 7.7 56.185 4.751 56.525c-1.55.19-2.704-.094-3.082-1.134-1.077-3.025 4.178-11.097 2.874-16.599z" transform="translate(-840 -181) translate(-417.826 -237.107) translate(1258.385 418.507) translate(136.084 198.02) translate(13.072) translate(7)"/>
                                        <path fill="#FFF" d="M19.27 12.95s.132.548 1.512.472c0 0 1.154-.076 1.116-.68-.02-.02-1.134-.435-2.628.207z" transform="translate(-840 -181) translate(-417.826 -237.107) translate(1258.385 418.507) translate(136.084 198.02) translate(13.072) translate(7)"/>
                                        <path fill="#AEC3FF" d="M1.688 55.41c.378 1.04 1.532 1.323 3.082 1.134 2.041-.888 10.87-4.31 10.757-6.617-.151-3.421-1.702-3.535-.605-7.77.87-3.402-7.279-9.717-8.564-11.097-2.439 4.632-2.515 4.859-1.815 7.751C5.847 44.294.592 52.366 1.688 55.41z" transform="translate(-840 -181) translate(-417.826 -237.107) translate(1258.385 418.507) translate(136.084 198.02) translate(13.072) translate(7)"/>
                                        <path fill="#9DB0F4" d="M.705 43.046c1.57-2.193 3.195-3.365 4.273-3.951-.246-.643 6.579-8.999 6.579-10.303 0-1.305 1.814-10.606 1.814-10.606s-5.69.36-7.656 3.1c-2.477 3.422-7.581 16.656-5.01 21.76z" transform="translate(-840 -181) translate(-417.826 -237.107) translate(1258.385 418.507) translate(136.084 198.02) translate(13.072) translate(7)"/>
                                        <path fill="#FFB27D" d="M4.959 39.095l11.362 2.968-1.059 1.91S1.424 43.877.686 43.026c-.718-.832 4.273-3.932 4.273-3.932z" transform="translate(-840 -181) translate(-417.826 -237.107) translate(1258.385 418.507) translate(136.084 198.02) translate(13.072) translate(7)"/>
                                        <path fill="#163560" d="M24.506 35.503c.965 1.57 2.685 5.501 4.897 6.787 1.455.85 3.422-.321 4.424-.945-.322-.586-.7-1.248-1.002-2.06-.813.188-1.796.415-2.44.623-1.247.36-5.879-4.405-5.879-4.405z" transform="translate(-840 -181) translate(-417.826 -237.107) translate(1258.385 418.507) translate(136.084 198.02) translate(13.072) translate(7)"/>
                                        <path fill="#FFB27D" d="M16.34 42.063s3.573-1.002 4.424-.775c.85.246 3.762 2.174 3.346 2.685-.416.529-2.968-.322-4.16-.152-1.171.152-2.098.738-2.949.624-.85-.132-1.739-.454-1.739-.454l1.078-1.928z" transform="translate(-840 -181) translate(-417.826 -237.107) translate(1258.385 418.507) translate(136.084 198.02) translate(13.072) translate(7)"/>
                                        <path fill="#FFB27D" d="M16.34 42.063s1.739-.888 2.25-1.399c.056-.057.17-.057.207.019.132.208.265.624-.36 1.02-.888.568-2.098.36-2.098.36z" transform="translate(-840 -181) translate(-417.826 -237.107) translate(1258.385 418.507) translate(136.084 198.02) translate(13.072) translate(7)"/>
                                    </g>
                                </g>
                                <g>
                                    <path fill="#ED7D2B" d="M16.655 18.149H0c0-.738.586-1.324 1.323-1.324h15.332v1.324z" transform="translate(-840 -181) translate(-417.826 -237.107) translate(1258.385 418.507) translate(136.084 198.02) translate(13.072) translate(23.17 28.943)"/>
                                    <path fill="#ED7D2B" d="M16.618 0h25.748l-6.181 18.149h-25.92L16.619 0z" transform="translate(-840 -181) translate(-417.826 -237.107) translate(1258.385 418.507) translate(136.084 198.02) translate(13.072) translate(23.17 28.943)"/>
                                    <path fill="#009FFF" d="M42.744 0l-6.182 18.149H10.644L16.996 0h25.748z" transform="translate(-840 -181) translate(-417.826 -237.107) translate(1258.385 418.507) translate(136.084 198.02) translate(13.072) translate(23.17 28.943)"/>
                                    <path fill="#F9DDBF" d="M28.868 8.904c-.152.7-.851 1.248-1.55 1.248-.7 0-1.135-.567-.965-1.248.152-.7.851-1.247 1.55-1.247.681 0 1.116.548.965 1.247z" transform="translate(-840 -181) translate(-417.826 -237.107) translate(1258.385 418.507) translate(136.084 198.02) translate(13.072) translate(23.17 28.943)"/>
                                    <path fill="#1C9AE5" d="M42.744 0l-6.182 18.13H19.396C30.758 14.254 33.783 2.42 34.294 0h8.45z" transform="translate(-840 -181) translate(-417.826 -237.107) translate(1258.385 418.507) translate(136.084 198.02) translate(13.072) translate(23.17 28.943)"/>
                                </g>
                            </g>
                            <g>
                                <g>
                                    <path fill="#95C0F4" d="M.477 52.726c.321 0 .605-.227.662-.548L4.372 33.84l4.65-26.373L10.327.095 7.018 0l-.567 4.273L2.405 34.35l-2.4 17.828c-.038.302.17.548.472.548z" transform="translate(-840 -181) translate(-417.826 -237.107) translate(1258.385 418.507) translate(136.084 198.02) translate(0 47.092) translate(3.758 2.76)"/>
                                    <path fill="#78ACEA" d="M6.432 4.31c2.155.946 2.59 3.195 2.59 3.195L10.327.132 7.018.038 6.432 4.31z" transform="translate(-840 -181) translate(-417.826 -237.107) translate(1258.385 418.507) translate(136.084 198.02) translate(0 47.092) translate(3.758 2.76)"/>
                                </g>
                                <g>
                                    <path fill="#95C0F4" d="M9.85 52.726c-.322 0-.605-.227-.662-.548L5.955 33.84 1.305 7.467 0 .095 3.308 0l.568 4.273L7.92 34.35l2.401 17.828c.038.302-.189.548-.473.548z" transform="translate(-840 -181) translate(-417.826 -237.107) translate(1258.385 418.507) translate(136.084 198.02) translate(0 47.092) translate(76.792 2.76)"/>
                                    <path fill="#78ACEA" d="M3.894 4.31c-2.155.946-2.59 3.195-2.59 3.195L0 .132 3.308.038l.586 4.272z" transform="translate(-840 -181) translate(-417.826 -237.107) translate(1258.385 418.507) translate(136.084 198.02) translate(0 47.092) translate(76.792 2.76)"/>
                                </g>
                                <path fill="#78ACEA" d="M2.023 5.785h84.846c1.115 0 2.023-.908 2.023-2.023v-1.74C88.892.908 87.984 0 86.869 0H2.023C.907 0 0 .907 0 2.023v1.74c0 1.114.907 2.022 2.023 2.022z" transform="translate(-840 -181) translate(-417.826 -237.107) translate(1258.385 418.507) translate(136.084 198.02) translate(0 47.092)"/>
                            </g>
                        </g>
                        <path fill="#2E3552" d="M519.043 300.428H20.178c-.302 0-.567-.246-.567-.567v-.189c0-.302.246-.567.567-.567h498.884c.303 0 .567.246.567.567v.19c-.018.32-.264.566-.586.566z" transform="translate(-840 -181) translate(-417.826 -237.107) translate(1258.385 418.507)"/>
                        <g>
                            <path fill="#FFB27D" d="M12.847 53.127s-2.193 2.723-1.512 3.1c.68.379 2.514 1.078 2.93.625.416-.454.567-3.65.567-3.65l-1.985-.075z" transform="translate(-840 -181) translate(-417.826 -237.107) translate(1258.385 418.507) translate(336.013 188.885)"/>
                            <path fill="#FFB27D" d="M12.941 53.184s-.907.321-1.247.775c-.34.454-1.135 1.191-.946 1.38.19.19 1.324-.68 1.324-.68l.87-1.475z" transform="translate(-840 -181) translate(-417.826 -237.107) translate(1258.385 418.507) translate(336.013 188.885)"/>
                            <path fill="#AEC3FF" d="M21.165 16.678S18.69 39.78 18.462 40.423c-.057.151-.246.87-.51 1.928-.398 1.494-.946 3.668-1.475 5.71-.794 3.1-1.513 5.955-1.513 5.955l-2.155-.719s-.113-11.23.435-13.8c.548-2.59 2.325-18.47 3.214-20.607.926-2.117 4.707-2.212 4.707-2.212z" transform="translate(-840 -181) translate(-417.826 -237.107) translate(1258.385 418.507) translate(336.013 188.885)"/>
                            <g>
                                <path fill="#A02E2E" d="M16.004 16.788L2.468 13.234C.71 12.78-.349 10.946.105 9.188l1.531-5.86C2.09 1.568 3.924.51 5.682.963l13.536 3.554c1.758.454 2.817 2.288 2.363 4.046l-1.531 5.86c-.454 1.759-2.288 2.817-4.046 2.364z" transform="translate(-840 -181) translate(-417.826 -237.107) translate(1258.385 418.507) translate(336.013 188.885) translate(0 55.282)"/>
                                <path fill="#BC3F3F" d="M3.432 3.781l-1.55 5.936c-.302 1.153.038 2.325.813 3.12.246.264.548.491.889.661.208.114.434.19.68.265l13.498 3.535c1.759.473 3.592-.605 4.065-2.363l1.55-5.936c.454-1.777-.605-3.592-2.363-4.065l-4.65-1.229.34-1.266c.15-.586-.19-1.191-.775-1.343l-.51-.132-2.837-.737-.7-.19c-.283-.075-.585-.037-.83.114-.247.151-.436.378-.511.662L10.2 2.08l-2.704-.7c-.114-.019-.208-.057-.321-.076-1.078-.17-2.156.208-2.893.965-.397.434-.7.945-.85 1.512zm12.251-.208l-4.84-1.267.34-1.266c.057-.227.284-.34.492-.284l1.21.322 2.23.586.606.15c.038.02.075.02.113.058.151.094.227.264.17.453l-.321 1.248z" transform="translate(-840 -181) translate(-417.826 -237.107) translate(1258.385 418.507) translate(336.013 188.885) translate(0 55.282)"/>
                            </g>
                            <path fill="#FFB27D" d="M14.133 56.927s.605-1.02.378-1.361c-.227-.36-1.04 1.04-1.04 1.04s.548-1.21.34-1.4c-.208-.188-1.058 1.192-1.058 1.192s.529-1.172.34-1.21c-.19-.038-.813.983-.813.983s.321-.87.038-.832c-.303.038-.945.832-.945.832l2.76.756z" transform="translate(-840 -181) translate(-417.826 -237.107) translate(1258.385 418.507) translate(336.013 188.885)"/>
                            <path fill="#9DB0F4" d="M17.951 42.351c-.397 1.494-.945 3.668-1.475 5.71-.34-.946-.775-2.458-1.04-4.538-.49-3.818 1.04-11.966 1.04-11.966l1.475 10.794z" transform="translate(-840 -181) translate(-417.826 -237.107) translate(1258.385 418.507) translate(336.013 188.885)"/>
                            <path fill="#FFB27D" d="M46.328 52.182s2.4 1.947 2.703 2.552c.303.605 1.04 2.855 1.002 3.592-.038.718-1.834-1.664-2.363-1.853-.53-.189.548.983.435 1.23-.113.245-1.248-.568-1.683-.833-.434-.264-.737-2.098-1.38-3.081-.642-1.002 1.286-1.607 1.286-1.607z" transform="translate(-840 -181) translate(-417.826 -237.107) translate(1258.385 418.507) translate(336.013 188.885)"/>
                            <path fill="#233862" d="M14.851 110.523h11.967c.85-.586-.227-6.258-.227-6.258s-3.27-1.247-3.819 1.286c-.567 2.514-4.159 3.308-6.05 3.63-1.323.208-1.739.926-1.87 1.342z" transform="translate(-840 -181) translate(-417.826 -237.107) translate(1258.385 418.507) translate(336.013 188.885)"/>
                            <path fill="#161468" d="M32.584 110.523h11.967c.85-.586-.227-6.258-.227-6.258s-3.27-1.247-3.819 1.286c-.567 2.514-4.159 3.308-6.05 3.63-1.323.208-1.739.926-1.871 1.342z" transform="translate(-840 -181) translate(-417.826 -237.107) translate(1258.385 418.507) translate(336.013 188.885)"/>
                            <path fill="#110F57" d="M18.065 52.56s.53 6.711 1.172 14.765c.85 10.946 3.176 38.112 3.176 38.112s1.513 1.305 4.878.586c0 0 2.854-9.376 3.724-20.058.019-.17.019-.359.038-.53.794-10.888 2.042-33.801 2.042-33.801l-15.03.926z" transform="translate(-840 -181) translate(-417.826 -237.107) translate(1258.385 418.507) translate(336.013 188.885)"/>
                            <path fill="#161468" d="M17.895 50.254l1.36 17.09 11.779 18.64c.018-.17.018-.36.037-.53.794-10.889 2.042-33.802 2.042-33.802l-15.218-1.398z" transform="translate(-840 -181) translate(-417.826 -237.107) translate(1258.385 418.507) translate(336.013 188.885)"/>
                            <path fill="#110F57" d="M21.316 50.254s8.545 21.268 11.268 29.321c1.947 5.747 7.43 25.881 7.43 25.881s2.382.719 4.386-.68c0 0 2.041-20.569-2.08-26.373-2.193-3.081-.548-31.987-9.415-32.233-8.847-.264-11.589 4.084-11.589 4.084z" transform="translate(-840 -181) translate(-417.826 -237.107) translate(1258.385 418.507) translate(336.013 188.885)"/>
                            <path fill="#AEC3FF" d="M37.594 52.182c-3.555 2.004-18.811 1.966-19.53.378-1.587-3.516-1.965-21.42-1.228-26.902 0 0 .378-8.431 1.229-8.072 5.633-2.59 14.765-.246 14.765-.246 2.457.718 2.25 6.352 2.93 14.235.094 1.021.189 2.08.302 3.176.492 4.878 1.191 10.474 2.269 16.372.076.416-.208.756-.737 1.059z" transform="translate(-840 -181) translate(-417.826 -237.107) translate(1258.385 418.507) translate(336.013 188.885)"/>
                            <path fill="#FFB27D" d="M28.614 16.414c-.095 1.512-2.061 1.342-4.424.794-2.363-.53-1.513-1.929-1.513-1.929s.038-1.077.19-2.363c.056-.472.132-.964.207-1.436.038-.227.095-.473.133-.7.302-1.323 4.726-.038 4.688.303-.075.983.624 4.14.719 5.33z" transform="translate(-840 -181) translate(-417.826 -237.107) translate(1258.385 418.507) translate(336.013 188.885)"/>
                            <path fill="#233862" d="M23.547 19.042l-.19-2.08 2.629.492-1.021 1.871-1.418-.283z" transform="translate(-840 -181) translate(-417.826 -237.107) translate(1258.385 418.507) translate(336.013 188.885)"/>
                            <path fill="#9DB0F4" d="M22.734 14.296l-1.569 2.382s0 1.456 1.361 2.534l2.137-1.985c0-.02-1.38-.549-1.929-2.93zM24.663 17.208s.434 1.588 1.304 2.325c0 0 3.346-.907 4.14-2.609l-1.739-2.25s-.095 1.702-3.705 2.534z" transform="translate(-840 -181) translate(-417.826 -237.107) translate(1258.385 418.507) translate(336.013 188.885)"/>
                            <path fill="#E2915A" d="M27.933 11.839s-2.136 1.418-5.066 1.077c.056-.472.132-.964.208-1.436.586-.133 1.077-.227 1.077-.227l3.781.586z" transform="translate(-840 -181) translate(-417.826 -237.107) translate(1258.385 418.507) translate(336.013 188.885)"/>
                            <path fill="#FFB27D" d="M29.294 10.232c-1.04 2.854-4.84 2.136-6.447 1.663-.453-.132-.737-.226-.737-.226-.491-.227-.662-1.097-.605-2.193.095-2.174.945-5.256 1.437-5.993.737-1.116 1.985-2.25 5.652-.662 3.687 1.57 2.023 3.743.7 7.41z" transform="translate(-840 -181) translate(-417.826 -237.107) translate(1258.385 418.507) translate(336.013 188.885)"/>
                            <path fill="#233862" d="M32.13 8.776c-1.153.945-3.649 2.704-3.649 2.704s.284-.322.624-1.267c.038-.114.057-.265.038-.435-.019-.473.095-.926.34-1.323.152-.246.208-.51.02-.68-.322-.303-.851-.02-1.21.207-.227.151-.53.17-.776.019-.983-.624.095-1.72-.7-2.628-.812-.907-4.29-1.04-4.158-1.607-1.191-.68-.435-3.157-.416-3.29 0 0 1.701.152 3.837-.377 1.74-.435 3.65.68 4.254 1.134 0-.113-.019-.265-.094-.416 0 0 .264.265.264.567.02.02.038.038.038.057 0 0 .34 0 .548.132 0 0-.15-.038-.227.038 0 .019-.018.019-.037.019 2.306 1.607 2.268 6.352 1.304 7.146z" transform="translate(-840 -181) translate(-417.826 -237.107) translate(1258.385 418.507) translate(336.013 188.885)"/>
                            <path fill="#FFF" d="M23.793 9.816s-.189.36-1.115.057c0 0-.794-.246-.662-.662 0 0 .851-.094 1.777.605z" transform="translate(-840 -181) translate(-417.826 -237.107) translate(1258.385 418.507) translate(336.013 188.885)"/>
                            <path fill="#2A4E96" d="M23.547 19.042s-2.098 26.41-2.06 28.603c.038 2.193 2.306 4.518 2.306 4.518s1.815-1.985 2.174-4.102c.36-2.099-1.002-28.774-1.002-28.774l-1.418-.245z" transform="translate(-840 -181) translate(-417.826 -237.107) translate(1258.385 418.507) translate(336.013 188.885)"/>
                            <path fill="#AEC3FF" d="M32.83 17.359s3.365.813 6.05 5.936c2.665 5.123 4.782 15.464 6.049 18.187 1.266 2.722 2.155 11.324 2.155 11.324l-2.023.983s-4.858-8.81-5.596-11.683c-.397-1.57-6.333-14.066-6.333-14.066L32.83 17.36z" transform="translate(-840 -181) translate(-417.826 -237.107) translate(1258.385 418.507) translate(336.013 188.885)"/>
                            <path fill="#9DB0F4" d="M37.594 52.182c-6.352-.908-4.537-21.93-4.046-22.024.492-.076 2.325 3.762 2.325 3.762l.17.85c.492 4.878 1.192 10.474 2.27 16.372.094.397-.19.737-.72 1.04z" transform="translate(-840 -181) translate(-417.826 -237.107) translate(1258.385 418.507) translate(336.013 188.885)"/>
                        </g>
                        <g>
                            <g>
                                <path fill="#233862" d="M47.98 76.47s2.647 2.42 2.137 4.122c-.51 1.72-2.911 2.855-3.233 4.953-.321 2.099-1.607 3.233-2.779 3.233h-5.539s-.85-1.475 1.21-1.928c2.06-.454 2.836-2.912 2.722-5.2-.132-2.287.19-5.33.19-5.33l4.385-1.021.908 1.172zM15.54 82.71s.473 5.5-.68 6.068L0 88.74s0-1.72 2.382-2.098c2.382-.378 6.579-1.777 7.297-4.897.7-3.1 5.86.964 5.86.964z" transform="translate(-840 -181) translate(-417.826 -237.107) translate(1258.385 418.507) translate(397.072 141.429) translate(7.804 69.088)"/>
                                <path fill="#110F57" d="M2.987 5.123s.775 9.623 1.701 21.193c1.248 15.729 2.76 35.03 2.912 38.698.264 6.352 1.285 16.523 1.285 16.523s2.458 2.42 7.354 1.4c0 0 4.367-14.5 5.615-29.852l.057-.756C23.064 36.714 24.879 3.8 24.879 3.8L2.987 5.124z" transform="translate(-840 -181) translate(-417.826 -237.107) translate(1258.385 418.507) translate(397.072 141.429) translate(7.804 69.088)"/>
                                <path fill="#161468" d="M2.987 5.123s.775 9.623 1.701 21.193l17.166 26.75.057-.756c1.153-15.615 2.968-48.529 2.968-48.529L2.987 5.123z" transform="translate(-840 -181) translate(-417.826 -237.107) translate(1258.385 418.507) translate(397.072 141.429) translate(7.804 69.088)"/>
                                <path fill="#110F57" d="M6.58 6.276S20.7 41.137 30.001 57.528c9.302 16.39 12.194 20.966 12.194 20.966s5.312-2.099 5.804-3.517c0 0-3.554-31.628-9.774-39.341-3.516-4.348-6.541-14.028-6.39-18.603C32.101 9.15 29.133 0 29.133 0L6.579 6.276z" transform="translate(-840 -181) translate(-417.826 -237.107) translate(1258.385 418.507) translate(397.072 141.429) translate(7.804 69.088)"/>
                            </g>
                            <path fill="#FFB27D" d="M3.097 75.875S.45 79.448.26 80.393c-.19.946-.416 4.349-.114 5.35.322 1.002 1.967-2.968 2.628-3.421.662-.454-.416 1.569-.151 1.871.265.303 1.531-1.247 2.023-1.777.491-.53.264-3.176.794-4.783.548-1.607-2.344-1.758-2.344-1.758z" transform="translate(-840 -181) translate(-417.826 -237.107) translate(1258.385 418.507) translate(397.072 141.429)"/>
                            <path fill="#FFF" d="M14.723 23.962S11.15 57.14 10.847 58.085c-.075.208-.34 1.248-.737 2.76C9.543 63 8.75 66.101 8.012 69.05c-1.135 4.462-2.363 8.3-2.363 8.3s-.53.34-1.834.245c-.889-.075-1.361-.832-1.361-.832s.132-16.296.926-20.001c.794-3.724 3.346-26.524 4.632-29.605 1.266-3.044 6.71-3.195 6.71-3.195z" transform="translate(-840 -181) translate(-417.826 -237.107) translate(1258.385 418.507) translate(397.072 141.429)"/>
                            <path fill="#DCEAFF" d="M10.11 60.864c-.567 2.155-1.361 5.256-2.098 8.205-.492-1.361-1.097-3.535-1.494-6.503C5.8 57.083 8.012 45.38 8.012 45.38l2.098 15.483z" transform="translate(-840 -181) translate(-417.826 -237.107) translate(1258.385 418.507) translate(397.072 141.429)"/>
                            <path fill="#FFF" d="M38.335 74.968c-5.123 2.892-27.034 2.816-28.055.548-2.268-5.067-2.835-30.759-1.758-38.661 0 0 .548-12.118 1.758-11.589 8.092-3.724 21.193-.34 21.193-.34 3.535 1.04 3.233 9.112 4.216 20.455.132 1.456.264 2.987.416 4.556.699 6.995 1.72 15.049 3.251 23.537.114.586-.265 1.078-1.02 1.494z" transform="translate(-840 -181) translate(-417.826 -237.107) translate(1258.385 418.507) translate(397.072 141.429)"/>
                            <path fill="#FFB27D" d="M25.423 23.584c-.132 2.174-2.968 1.928-6.37 1.153-3.404-.775-2.175-2.78-2.175-2.78s.057-1.53.265-3.383c.075-.662.17-1.38.302-2.08.057-.34.133-.68.208-1.002.435-1.91 6.787-.075 6.75.454-.114 1.38.888 5.936 1.02 7.638z" transform="translate(-840 -181) translate(-417.826 -237.107) translate(1258.385 418.507) translate(397.072 141.429)"/>
                            <path fill="#233862" d="M18.145 27.383l-.265-3.005 3.762.718-1.455 2.666-2.042-.379z" transform="translate(-840 -181) translate(-417.826 -237.107) translate(1258.385 418.507) translate(397.072 141.429)"/>
                            <path fill="#DCEAFF" d="M16.973 20.54l-2.25 3.422s0 2.098 1.947 3.63l3.082-2.855s-1.985-.756-2.78-4.197zM19.752 24.737s.643 2.287 1.872 3.327c0 0 4.801-1.285 5.936-3.743l-2.496-3.233s-.113 2.439-5.312 3.649z" transform="translate(-840 -181) translate(-417.826 -237.107) translate(1258.385 418.507) translate(397.072 141.429)"/>
                            <path fill="#E2915A" d="M24.459 17.023s-3.063 2.023-7.297 1.55c.075-.661.17-1.38.302-2.079.832-.208 1.531-.321 1.531-.321l5.464.85z" transform="translate(-840 -181) translate(-417.826 -237.107) translate(1258.385 418.507) translate(397.072 141.429)"/>
                            <path fill="#FFB27D" d="M26.388 14.717c-1.494 4.102-6.938 3.063-9.264 2.4-.661-.188-1.058-.34-1.058-.34-.719-.32-.946-1.568-.87-3.156.132-3.12 1.361-7.544 2.06-8.602 1.06-1.607 2.855-3.233 8.13-.964 5.293 2.268 2.911 5.387 1.002 10.662z" transform="translate(-840 -181) translate(-417.826 -237.107) translate(1258.385 418.507) translate(397.072 141.429)"/>
                            <path fill="#BC3F3F" d="M30.471 12.6c-1.664 1.36-5.255 3.875-5.255 3.875s.397-.472.888-1.834c.057-.15.076-.378.057-.623-.02-.662.132-1.324.491-1.891.227-.36.303-.718.02-.983-.454-.435-1.23-.038-1.74.321-.34.227-.775.246-1.115.038-1.418-.888.15-2.457-1.002-3.78-1.154-1.305-6.182-1.494-5.974-2.307-1.72-.964-.624-4.537-.605-4.727 0 0 2.457.208 5.52-.548 2.495-.624 5.237.983 6.106 1.626 0-.151-.019-.378-.132-.605 0 0 .378.378.378.813.038.038.057.057.038.076 0 0 .491-.02.794.189 0 0-.208-.076-.322.056-.018.02-.018.02-.037.038 3.327 2.344 3.27 9.131 1.89 10.266z" transform="translate(-840 -181) translate(-417.826 -237.107) translate(1258.385 418.507) translate(397.072 141.429)"/>
                            <path fill="#FFF" d="M18.504 14.112s-.265.51-1.607.095c0 0-1.134-.36-.945-.965 0 .02 1.21-.132 2.552.87z" transform="translate(-840 -181) translate(-417.826 -237.107) translate(1258.385 418.507) translate(397.072 141.429)"/>
                            <path fill="#2A4E96" d="M18.145 27.383s-3.006 37.943-2.968 41.1c.037 3.157 3.327 6.503 3.327 6.503s2.609-2.873 3.12-5.88c.51-3.024-1.456-41.326-1.456-41.326l-2.023-.397z" transform="translate(-840 -181) translate(-417.826 -237.107) translate(1258.385 418.507) translate(397.072 141.429)"/>
                            <path fill="#DCEAFF" d="M38.336 74.968c-9.131-1.305-6.522-31.515-5.804-31.629.718-.113 3.346 5.407 3.346 5.407l.246 1.229c.7 6.995 1.72 15.048 3.252 23.537.094.548-.284 1.04-1.04 1.456z" transform="translate(-840 -181) translate(-417.826 -237.107) translate(1258.385 418.507) translate(397.072 141.429)"/>
                            <g>
                                <path fill="#A02E2E" d="M27.83 19.27L8.53 24.887c-2.515.737-5.161-.719-5.899-3.233L.192 13.297c-.738-2.514.718-5.161 3.232-5.898l19.302-5.615c2.515-.738 5.162.718 5.899 3.232l2.439 8.357c.718 2.514-.738 5.18-3.233 5.898z" transform="translate(-840 -181) translate(-417.826 -237.107) translate(1258.385 418.507) translate(397.072 141.429) translate(37.331 78.193)"/>
                                <path fill="#BC3F3F" d="M2.744 12.54l2.458 8.451c.472 1.645 1.758 2.836 3.308 3.252.51.151 1.04.208 1.588.17.34-.019.68-.075 1.02-.17l19.265-5.615c2.514-.737 3.989-3.403 3.252-5.917l-2.458-8.45C30.44 1.745 27.774.27 25.26 1.008l-6.636 1.928-.53-1.796C17.85.309 16.98-.182 16.148.063l-.718.208-4.027 1.172-1.002.284c-.397.113-.737.378-.945.756-.208.378-.246.794-.132 1.191l.53 1.796-3.839 1.116c-.15.037-.302.094-.434.15-1.456.587-2.496 1.854-2.855 3.31-.227.831-.227 1.682.019 2.495zm14.935-9.3l-6.9 2.003-.53-1.796c-.094-.302.095-.642.398-.737l1.739-.51 3.176-.927.85-.245c.057-.02.114-.02.17-.02.247 0 .473.17.549.417l.548 1.814z" transform="translate(-840 -181) translate(-417.826 -237.107) translate(1258.385 418.507) translate(397.072 141.429) translate(37.331 78.193)"/>
                            </g>
                            <path fill="#FFB27D" d="M49.225 76.026s-.605 5.01.529 4.935c1.115-.076 3.876-.605 4.046-1.475.189-.87-2.099-4.878-2.099-4.878l-2.476 1.418z" transform="translate(-840 -181) translate(-417.826 -237.107) translate(1258.385 418.507) translate(397.072 141.429)"/>
                            <path fill="#FFB27D" d="M49.376 76.007s-.85 1.059-.926 1.91c-.076.831-.492 2.306-.095 2.4.378.095 1.097-1.833 1.097-1.833l-.076-2.477z" transform="translate(-840 -181) translate(-417.826 -237.107) translate(1258.385 418.507) translate(397.072 141.429)"/>
                            <path fill="#FFF" d="M31.473 24.964s4.84 1.153 8.678 8.526c3.837 7.354 6.862 22.213 8.677 26.127 1.834 3.913 3.214 15.672 3.214 15.672s-.284.586-1.267.794c-.756.17-1.55.094-1.55.094s-7.203-11.532-8.243-15.69c-.567-2.25-9.112-20.21-9.112-20.21l-.397-15.313z" transform="translate(-840 -181) translate(-417.826 -237.107) translate(1258.385 418.507) translate(397.072 141.429)"/>
                        </g>
                        <g>
                            <path fill="#FFB27D" d="M38.317 139.948l-.737-5.237 3.062-2.552.945 6.919-3.27.87z" transform="translate(-840 -181) translate(-417.826 -237.107) translate(1258.385 418.507) translate(71.074 154.583)"/>
                            <path fill="#233862" d="M48.43 144.617H35.992s-.302-1.89.36-3.327c.623-1.38 1.588-2.231 1.682-3.29.794.813 1.758 1.343 3.554 1.097.227.359 1.418 2.268 2.155 2.798.832.567 4.443.359 4.689 2.722z" transform="translate(-840 -181) translate(-417.826 -237.107) translate(1258.385 418.507) translate(71.074 154.583)"/>
                            <path fill="#110F57" d="M45.935 69.318c-.812 6.542-1.474 12.705-2.022 18.452-2.893 30.626-2.326 49.342-2.326 49.342s-.208.548-2.004.567c-1.02 0-2.004-.208-2.004-.208s-6.484-20.002-5.974-31.382c.057-1.361.227-2.61.51-3.687C33.667 96.58 26.37 74.31 34.31 66.01c7.94-8.28 12.005.303 11.626 3.308z" transform="translate(-840 -181) translate(-417.826 -237.107) translate(1258.385 418.507) translate(71.074 154.583)"/>
                            <path fill="#161468" d="M45.935 69.318c-.812 6.542-1.474 12.705-2.022 18.452l-12.308 18.319c.057-1.361.227-2.61.51-3.687C33.667 96.58 26.37 74.31 34.31 66.01c7.94-8.28 12.005.303 11.626 3.308z" transform="translate(-840 -181) translate(-417.826 -237.107) translate(1258.385 418.507) translate(71.074 154.583)"/>
                            <path fill="#FFB27D" d="M55.728 6.913s-.302-1.494-.642-2.628c-.152-.51.888-3.819 1.607-4.235.718-.416 2.59 1.834 2.06 3.536-.265.888-.718 3.743-.718 3.743l-2.307-.416z" transform="translate(-840 -181) translate(-417.826 -237.107) translate(1258.385 418.507) translate(71.074 154.583)"/>
                            <path fill="#FFB27D" d="M55.728 6.913s-.397-.87-.737-1.002c-.36-.132-.737-1.55-.983-2.117 0 0 .246-.36.68.113.265.284.87 1.134.87 1.134l.17 1.872zM4.401 11.942c-.076.15-.189.435-.284.7v-.209c0-.53-1.966-3.384-2.779-3.573-.813-.17-1.947 2.496-.945 3.99.51.755 1.777 3.364 1.777 3.364l2.099-1.077s.113-.946.416-1.172c.302-.246.245-1.702.321-2.326.019 0-.34-.283-.605.303zM17.465 138.379c-.17-1.683-.227-6.088-.227-6.088s4.5-1.437 4.329-.454c-.813 4.84-.586 7.241-.586 7.241l-1.815 1.078-1.701-1.777z" transform="translate(-840 -181) translate(-417.826 -237.107) translate(1258.385 418.507) translate(71.074 154.583)"/>
                            <path fill="#110F57" d="M42.192 68.997s-17.355 47.584-20.777 68.229c0 0-.794.548-2.268.359-1.683-.208-2.137-1.361-2.137-1.361s-3.138-24.747 3.1-33.33c4.292-5.898-1.852-31.817 8.13-33.897 9.963-2.06 13.952 0 13.952 0z" transform="translate(-840 -181) translate(-417.826 -237.107) translate(1258.385 418.507) translate(71.074 154.583)"/>
                            <path fill="#163560" d="M39.11 23.228c0-.019 0-.038-.018-.057-.095-.416-.208-.832-.34-1.247-.36-1.248-.795-2.44-1.267-3.498-.265-.605-.548-1.153-.832-1.664-.038-.075-.095-.15-.132-.226-.662-1.135-1.362-1.91-1.985-2.156-1.135-.434-2.401-.321-3.271-.132.19-.265.624-.416.624-.416-.548 0-1.683.719-1.683.719-7.996-1.796-7.524 9.528-6.976 12.08.549 2.57-2.022 3.819-5.671 6.428-6.938 5.01-6.806 10.303-6.806 10.303.057.019.132.057.208.094.284-.68.87-1.985 1.494-2.268-.02.056-.53 1.739-.662 2.684 1.059.586 2.514 1.475 4.102 2.496 2.118 1.36 4.462 2.93 6.333 4.197-.094-.51-.17-1.248-.037-1.664l.605 1.853.075.245c1.191.813 2.136 1.456 2.628 1.796.057.038.095.057.132.095.133.094.208.151.208.151-.15-.661.549-2.363 1.72-4.518.076-.151.17-.303.246-.454.379-.68.794-1.399 1.248-2.136.17-.265.322-.53.51-.813.133-.227.284-.435.417-.662.34-.529.699-1.058 1.058-1.588.927-1.38 1.91-2.741 2.893-3.989 1.418-1.815 2.798-3.403 3.95-4.442.039-.076.076-.152.114-.246.19-.416.322-.889.435-1.361.038-.152.057-.284.095-.435.283-1.531.302-3.025.283-3.384.095 1.474.057 2.571-.038 3.422-.019.189-.037.359-.075.51-.057.36-.133.662-.208.908.189-.227.359-.492.51-.776.095-.189.19-.378.265-.586.907-2.363.662-5.917-.151-9.263z" transform="translate(-840 -181) translate(-417.826 -237.107) translate(1258.385 418.507) translate(71.074 154.583)"/>
                            <path fill="#FFB27D" d="M37.598 34.684c.019 0-2.23 1.645-4.16 1.418-1.814-.208-3.27-2.306-3.25-2.306.718-.265.774-1.305.113-5.634l.34.02 5.747.283s.132 1.777.378 3.44c.208 1.38.492 2.685.832 2.78z" transform="translate(-840 -181) translate(-417.826 -237.107) translate(1258.385 418.507) translate(71.074 154.583)"/>
                            <path fill="#ED975D" d="M36.407 28.446s.133 1.777.378 3.44c-3.138.379-5.217-2.23-6.125-3.705l5.747.265z" transform="translate(-840 -181) translate(-417.826 -237.107) translate(1258.385 418.507) translate(71.074 154.583)"/>
                            <path fill="#163560" d="M29.98 27.652s-2.023-2.345-2.742-4.5c-.51-1.531-.586-7.524 5.426-7.562 0 0 1.74-.094 3.498.756 1.399.681 3.535 2.27 2.23 7.695l-.283 1.815-8.13 1.796z" transform="translate(-840 -181) translate(-417.826 -237.107) translate(1258.385 418.507) translate(71.074 154.583)"/>
                            <path fill="#FFF" d="M46.673 68.09s-7.487 4.442-16.901 2.155c-.114-.02-7.751-1.248-7.751-1.248.132-.36 1.115-6.258 1.247-6.579 1.664-4.31 4.726-27.677 7.26-28.83.643.7 2.514 1.19 4.102 1.059 1.834-.17 2.439-.946 2.288-1.796 2.023.964 3.592 1.852 3.592 1.852 1.871 2.76 6.163 33.386 6.163 33.386z" transform="translate(-840 -181) translate(-417.826 -237.107) translate(1258.385 418.507) translate(71.074 154.583)"/>
                            <path fill="#FFB27D" d="M37.674 29.864s-7.392 1.228-8.072-3.384c-.7-4.613-2.118-7.562 2.57-8.526 4.69-.984 5.861.642 6.466 2.136.624 1.455.945 9.339-.964 9.774z" transform="translate(-840 -181) translate(-417.826 -237.107) translate(1258.385 418.507) translate(71.074 154.583)"/>
                            <path fill="#163560" d="M35.537 17.33s-1.229 5.709-4.216 6.976c-2.987 1.266-4.461.623-4.461.623s2.098-2.25 2.098-5.633c0 0 4.67-4.31 6.58-1.966z" transform="translate(-840 -181) translate(-417.826 -237.107) translate(1258.385 418.507) translate(71.074 154.583)"/>
                            <path fill="#163560" d="M35.103 17.84s1.701.983 2.23 2.098c.55 1.116 1.078 3.517 1.759 3.328 0 0 .983-3.914-1.04-5.728-2.155-1.929-2.949.302-2.949.302z" transform="translate(-840 -181) translate(-417.826 -237.107) translate(1258.385 418.507) translate(71.074 154.583)"/>
                            <path fill="#009FFF" d="M58.091 7.026c-.302-.113-.737-.359-1.323-.416-.51-.037-1.153.114-1.153.114s-2.08 12.95-2.231 13.63c-.151.681-8.942 10.587-11.305 10.53-2.137-.037-4.67 1.607-5.142 1.929 0 0 4.972 10.53 5.236 12.515.265 2.155 2.855 35.296 2.855 35.296s-.151 1.55 2.722.718c2.874-.832 3.592-1.512 3.592-1.512s-2.647-26.09-3.195-34.2c-.075-1.096-.246-2.098-.51-3.024-.246-.889-.057-1.853.491-2.61 3.649-4.99 9.396-13.1 9.717-14.82.473-2.515.246-18.15.246-18.15z" transform="translate(-840 -181) translate(-417.826 -237.107) translate(1258.385 418.507) translate(71.074 154.583)"/>
                            <path fill="#233862" d="M27.824 144.617h-12.44s-.302-1.89.36-3.327c.624-1.38 1.588-2.231 1.683-3.29.794.813 1.758 1.343 3.554 1.097.227.359 1.418 2.268 2.155 2.798.813.567 4.424.359 4.688 2.722z" transform="translate(-840 -181) translate(-417.826 -237.107) translate(1258.385 418.507) translate(71.074 154.583)"/>
                            <path fill="#009FFF" d="M36.35 46.368c-.415-2.571-5.765-12.931-5.765-12.931s-3.384-1.021-5.615-.208c-2.23.813-13.744-5.69-14.122-6.296-.378-.605-6.541-12.099-6.541-12.099s-.51-.302-1.324.132c-.813.416-.813 1.248-.813 1.248s4.764 14.481 6.031 16.712c.756 1.342 7.184 6.05 12.175 9.566.945.68 1.456 1.815 1.285 2.968-.661 4.953-.831 7.732-1.606 16.24-.643 7.051-.889 20.682-.889 20.682s5.577 1.928 9.415 2.193c3.837.264 4.688-3.8 4.688-3.8s3.517-31.742 3.082-34.407z" transform="translate(-840 -181) translate(-417.826 -237.107) translate(1258.385 418.507) translate(71.074 154.583)"/>
                            <path fill="#FFF" d="M35.254 27.576s.888.53 1.947.36c.718-.114.889-.965.889-.965s-.51-.151-1.305 0c-.794.17-1.531.605-1.531.605z" transform="translate(-840 -181) translate(-417.826 -237.107) translate(1258.385 418.507) translate(71.074 154.583)"/>
                        </g>
                        <g>
                            <path fill="#FFB27D" d="M104.163 22.328s-3.46-6.144 0-7.392c3.46-1.248 5.01-.095 5.18 1.304.17 1.4-1.324 6.92-1.324 6.92l-3.856-.832z" transform="translate(-840 -181) translate(-417.826 -237.107) translate(1258.385 418.507) translate(238.044 71.942)"/>
                            <path fill="#009FFF" d="M106.922 61.612c-6.295 1.135-12.099 1.664-17.317 1.777-4.972.114-9.415-.15-13.309-.605-1.04-.113-2.06-.245-3.025-.397-10.209-1.55-15.842-4.291-15.842-4.291s9.32-19.51 16.844-18.754c8.829.889 23.802 8.81 25.295 6.58 1.683-2.496 3.082-23.991 3.082-23.991 3.913-2.685 6.257.15 6.257.15s7.657 37.792-1.985 39.531z" transform="translate(-840 -181) translate(-417.826 -237.107) translate(1258.385 418.507) translate(238.044 71.942)"/>
                            <path fill="#1892DC" d="M106.923 61.612c-6.296 1.135-12.1 1.664-17.317 1.777-4.972.114-9.415-.15-13.31-.605-2.344-7.467-4.045-15.105.681-10.51 8.337 8.128 29.946 9.338 29.946 9.338z" transform="translate(-840 -181) translate(-417.826 -237.107) translate(1258.385 418.507) translate(238.044 71.942)"/>
                            <path fill="#233862" d="M56.73 219.13s-.662 7.75.964 8.563l20.984-.038s0-2.42-3.365-2.968c-3.365-.529-9.282-2.514-10.284-6.9-1.002-4.405-8.3 1.342-8.3 1.342z" transform="translate(-840 -181) translate(-417.826 -237.107) translate(1258.385 418.507) translate(238.044 71.942)"/>
                            <path fill="#110F57" d="M72.137 125.266c-.094 5.066-.34 10.303-.832 15.01-2.268 22.308-3.062 49.267-3.384 54.466-.567 9.018-2.344 23.423-2.344 23.423s-3.535 3.346-10.417 1.758c0 0-5.709-20.757-6.976-42.612l-.056-1.077c-.152-2.893-.303-6.201-.454-9.755-1.059-23.858-2.193-59.305-2.193-59.305l26.335-6.182c-.02-.02.586 11.626.321 24.274z" transform="translate(-840 -181) translate(-417.826 -237.107) translate(1258.385 418.507) translate(238.044 71.942)"/>
                            <path fill="#161468" d="M72.137 125.266c-6.674 11.513-19.397 32.724-24.482 41.194-1.059-23.858-2.193-59.305-2.193-59.305l26.335-6.182s.605 11.645.34 24.293z" transform="translate(-840 -181) translate(-417.826 -237.107) translate(1258.385 418.507) translate(238.044 71.942)"/>
                            <path fill="#FFB27D" d="M5.478 102.958s-4.292 5.047-4.67 6.427c-.378 1.4-1.077 6.428-.7 7.94.36 1.513 3.215-4.215 4.254-4.82 1.04-.605-.775 2.287-.416 2.76.36.491 2.401-1.683 3.195-2.42.794-.737.719-4.688 1.683-7.014.945-2.344-3.346-2.873-3.346-2.873z" transform="translate(-840 -181) translate(-417.826 -237.107) translate(1258.385 418.507) translate(238.044 71.942)"/>
                            <path fill="#233862" d="M4.476 210.32s-3.744 3.402-3.006 5.822c.737 2.42 4.102 4.027 4.556 6.995.454 2.968 2.268 4.575 3.913 4.575h7.808s1.21-2.08-1.701-2.703c-2.912-.624-4.008-4.103-3.838-7.335.189-3.233-.265-7.525-.265-7.525l-6.2-1.436-1.267 1.606z" transform="translate(-840 -181) translate(-417.826 -237.107) translate(1258.385 418.507) translate(238.044 71.942)"/>
                            <path fill="#110F57" d="M67.638 107.684S42.986 160.41 29.884 183.55c-13.12 23.14-17.222 29.586-17.222 29.586s-7.505-2.968-8.205-4.972c0 0 5.01-44.672 13.8-55.562 4.973-6.144 10.796-24.614 11.06-31.08.265-6.465 6.03-21.873 6.03-21.873l32.29 8.035z" transform="translate(-840 -181) translate(-417.826 -237.107) translate(1258.385 418.507) translate(238.044 71.942)"/>
                            <path fill="#009FFF" d="M74.84 110.18s-9.792 6.56-23.669 5.936c-6.087-.265-18.168-1.985-20.115-6.825-.454-1.134-.113-2.571.567-4.802 1.777-5.747 5.937-16.712 4.689-41.005-.114-2.269-.057-4.386.17-6.371 1.304-11.967 8.167-19.056 14.803-21.382 16.164-5.652 21.551 2.174 21.551 2.174s7.147 5.653 8.224 17.488c2.136 23.63-6.22 54.786-6.22 54.786z" transform="translate(-840 -181) translate(-417.826 -237.107) translate(1258.385 418.507) translate(238.044 71.942)"/>
                            <path fill="#FFB27D" d="M56.011 34.37s7.411 4.519 15.465 3.233c0 0 1.588-.397.813-2.269.491-1.512.434-1.38.718-2.495.7-2.571.926-4.065.926-4.065l-4.575-4.802-4.329-4.593c-1.21 10.983-9.018 14.991-9.018 14.991z" transform="translate(-840 -181) translate(-417.826 -237.107) translate(1258.385 418.507) translate(238.044 71.942)"/>
                            <path fill="#ED985F" d="M64.33 23.557s2.476 6.635 8.658 9.3c.7-2.57 1.172-5.274 1.172-5.274l-4.802-3.592-5.029-.434z" transform="translate(-840 -181) translate(-417.826 -237.107) translate(1258.385 418.507) translate(238.044 71.942)"/>
                            <path fill="#FFB27D" d="M79.037 28.547s-14.16 1.777-15.162-6.938c-1.001-8.696-3.497-14.33 5.502-15.823 8.999-1.494 11.135 1.626 12.194 4.461 1.058 2.817 1.115 17.62-2.534 18.3z" transform="translate(-840 -181) translate(-417.826 -237.107) translate(1258.385 418.507) translate(238.044 71.942)"/>
                            <path fill="#2C3A64" d="M59.414 4.368c-.113-.151-.416-.284-1.059-.34 0 0 .53-.303 1.23-.303.17-.907.718-2.495 2.306-2.836 0 0-.87.416-1.002 1.38C62.779.473 66.73-.736 77.469.511c14.178 1.664 9.15 10.587 7.26 11.608-1.891 1.02-6.41-2.136-9.832-1.985-3.421.151-4.272 5.066-5.463 5.71-1.191.642-.68-.549-2.231-1.324-1.55-.775-1.796 1.834-1.399 3.535.397 1.72-1.853 3.876-1.853 3.876l-2.098-2.44c-2.099-2.438-3.781-12.476-2.704-14.575.076-.17.17-.359.265-.548z" transform="translate(-840 -181) translate(-417.826 -237.107) translate(1258.385 418.507) translate(238.044 71.942)"/>
                            <g>
                                <path fill="#2A4E96" d="M25.39 11.25l-24.028.208-.17-3.61 23.971-1.853.227 5.255z" transform="translate(-840 -181) translate(-417.826 -237.107) translate(1258.385 418.507) translate(238.044 71.942) translate(77.26 7.013)"/>
                                <path fill="#2A4E96" d="M43.538 11.855l-26.164.379-.303-6.58L43.18 3.633l.36 8.223z" transform="translate(-840 -181) translate(-417.826 -237.107) translate(1258.385 418.507) translate(238.044 71.942) translate(77.26 7.013)"/>
                                <path fill="#233862" d="M61.196 12.366l-22.08.038-.398-8.886 21.987-2.004.491 10.852z" transform="translate(-840 -181) translate(-417.826 -237.107) translate(1258.385 418.507) translate(238.044 71.942) translate(77.26 7.013)"/>
                                <path fill="#233862" d="M61.499 13.86c.68-.038 1.21-.606 1.172-1.286l-.51-11.4c-.039-.68-.606-1.21-1.286-1.172-.68.038-1.21.605-1.172 1.285l.51 11.4c.038.68.605 1.21 1.286 1.172z" transform="translate(-840 -181) translate(-417.826 -237.107) translate(1258.385 418.507) translate(238.044 71.942) translate(77.26 7.013)"/>
                                <path fill="#2A4E96" d="M1.286 12.233c-.605.02-1.115-.434-1.153-1.04L0 8.227C-.02 7.62.435 7.11 1.04 7.072c.604-.019 1.115.435 1.153 1.04l.132 2.968c.038.605-.435 1.135-1.04 1.153z" transform="translate(-840 -181) translate(-417.826 -237.107) translate(1258.385 418.507) translate(238.044 71.942) translate(77.26 7.013)"/>
                            </g>
                            <path fill="#1892DC" d="M31.623 104.489c1.777-5.747 5.936-16.712 4.689-41.005-.114-2.269-.057-4.386.17-6.371 5.312-.454 13.46 5.293 13.46 5.293s-5.029 30.532-18.319 42.083z" transform="translate(-840 -181) translate(-417.826 -237.107) translate(1258.385 418.507) translate(238.044 71.942)"/>
                            <path fill="#009FFF" d="M56.01 34.37s-13.649 2.344-20.757 11.04c-7.108 8.697-18.565 20.929-21.268 25.22-2.703 4.292-10.228 33.481-10.228 33.481s.492.945 2.571 1.493c1.985.53 3.422-.283 3.422-.283s9.963-17.034 13.706-25.54c1.55-3.536 28.471-17.545 38.604-16.089 3.952.548-6.05-29.322-6.05-29.322z" transform="translate(-840 -181) translate(-417.826 -237.107) translate(1258.385 418.507) translate(238.044 71.942)"/>
                            <path fill="#FFB27D" d="M102.518 11.968s2.93 1.796 4.688 1.04c1.758-.757 1.607-1.456 1.607-1.456s-5.312-1.475-6.295.416z" transform="translate(-840 -181) translate(-417.826 -237.107) translate(1258.385 418.507) translate(238.044 71.942)"/>
                            <path fill="#110F57" d="M69.244 43.898s-5.992 37.81-48.472 48.813l-4.632 9.131 8.13 1.38s48.358-14.008 47.716-59.985l-2.742.661zM68.318 37.849l-1.966.208v2.835l2.892 3.006 2.741-.68v-3.932l-1.966-1.437h-1.701z" transform="translate(-840 -181) translate(-417.826 -237.107) translate(1258.385 418.507) translate(238.044 71.942)"/>
                            <path fill="#1892DC" d="M60.624 30.344s-1.89.434-6.239 4.026c0 0 4.31 9.17 13.423 10.266 0 0-.151-4.254.51-6.768 0-.02-7.221-2.59-7.694-7.524zM68.318 37.849s4.443 2.363 4.764 6.03c0 0 1.702-2.684 1.21-4.556-.491-1.871-2.022-4.007-2.022-4.007s.15 2.268-3.952 2.533z" transform="translate(-840 -181) translate(-417.826 -237.107) translate(1258.385 418.507) translate(238.044 71.942)"/>
                        </g>
                    </g>
                </g>
            </g>
        </g>
    </g>
</svg>
