<svg xmlns="http://www.w3.org/2000/svg" xmlns:xlink="http://www.w3.org/1999/xlink" width="60" height="60" viewBox="0 0 60 60">
    <defs>
        <path id="a8yw3qxtga" d="M0 0H60V60H0z"/>
    </defs>
    <g fill="none" fill-rule="evenodd">
        <g>
            <g>
                <g transform="translate(-961 -2881) translate(150 2845) translate(811 36)">
                    <mask id="9pjft1zmob" fill="#fff">
                        <use xlink:href="#a8yw3qxtga"/>
                    </mask>
                    <path fill="#110F57" d="M55.629 9.996H4.37C1.957 9.996 0 11.965 0 14.38v31.254c0 2.414 1.957 4.37 4.371 4.37h20.625v5.005h-5.004c-1.383 0-2.496 1.125-2.496 2.496S18.621 60 19.992 60h20.004c1.383 0 2.496-1.125 2.496-2.496s-1.113-2.496-2.496-2.496h-5.004v-5.004h20.625c2.414 0 4.371-1.957 4.371-4.371V14.379c.012-2.414-1.945-4.383-4.36-4.383zM54.996 45H5.004V15h50.004v30h-.012z" mask="url(#9pjft1zmob)"/>
                    <path fill="#009FFF" d="M42.504 17.496c-2.754 0-5.004 2.238-5.004 5.004 0 .89.246 1.7.656 2.426l-4.23 5.308C33.469 30.094 33 30 32.508 30c-1.266 0-2.403.48-3.281 1.254l-6.762-3.363c.012-.13.035-.258.035-.399 0-2.754-2.238-5.004-5.004-5.004-2.766 0-5.004 2.239-5.004 5.004 0 2.766 2.238 5.004 5.004 5.004 1.266 0 2.402-.48 3.281-1.254l6.762 3.363c-.012.13-.035.258-.035.399 0 2.754 2.238 5.004 5.004 5.004 2.765 0 5.004-2.238 5.004-5.004 0-.89-.246-1.7-.657-2.426l4.23-5.308c.458.14.927.234 1.419.234 2.754 0 5.004-2.238 5.004-5.004 0-2.766-2.25-5.004-5.004-5.004z" mask="url(#9pjft1zmob)"/>
                </g>
            </g>
        </g>
    </g>
</svg>
