<svg xmlns="http://www.w3.org/2000/svg" xmlns:xlink="http://www.w3.org/1999/xlink" width="76" height="75" viewBox="0 0 76 75">
    <defs>
        <path id="rm8el27cma" d="M0 0H75V75H0z"/>
    </defs>
    <g fill="none" fill-rule="evenodd">
        <g>
            <g transform="translate(-302 -786) translate(302.5 786)">
                <mask id="61bvp7b52b" fill="#fff">
                    <use xlink:href="#rm8el27cma"/>
                </mask>
                <path fill="#009FFF" d="M74.985 0v69.36c0 1.51-.586 2.915-1.64 3.985-3.53 3.53-9.595.996-9.595-3.985V13.594c0-1.29-1.055-2.344-2.344-2.344H15.938V0h59.047z" mask="url(#61bvp7b52b)"/>
                <path fill="#110F57" d="M60.586 74.751c-.22-.322-.6-1.07-.879-1.787-.923-2.505-.644.879-.644-57.012H.015v53.423C.015 72.48 2.535 75 5.64 75c59.37-.015 55.166.103 54.946-.249zM27.89 68.027c0 1.29-1.055 2.344-2.344 2.344H6.958c-1.29 0-2.344-1.055-2.344-2.344V49.438c0-1.289 1.055-2.343 2.344-2.343h18.589c1.289 0 2.344 1.054 2.344 2.343v18.59zm24.213 2.344H34.85c-1.29 0-2.344-1.055-2.344-2.344s1.055-2.343 2.344-2.343h17.255c1.29 0 2.344 1.054 2.344 2.343 0 1.304-1.054 2.344-2.344 2.344zm0-9.287H34.85c-1.29 0-2.344-1.055-2.344-2.344s1.055-2.344 2.344-2.344h17.255c1.29 0 2.344 1.055 2.344 2.344 0 1.29-1.054 2.344-2.344 2.344zm0-9.302H34.85c-1.29 0-2.344-1.054-2.344-2.344 0-1.289 1.055-2.343 2.344-2.343h17.255c1.29 0 2.344 1.054 2.344 2.343 0 1.29-1.054 2.344-2.344 2.344zm2.344-11.63c0 1.288-1.054 2.343-2.343 2.343H6.958c-1.29 0-2.344-1.055-2.344-2.344v-17.27c0-1.29 1.055-2.344 2.344-2.344h45.147c1.289 0 2.343 1.055 2.343 2.344v17.27z" mask="url(#61bvp7b52b)"/>
                <path fill="#110F57" d="M9.302 25.225L49.761 25.225 49.761 37.793 9.302 37.793zM9.302 51.782L23.203 51.782 23.203 65.684 9.302 65.684z" mask="url(#61bvp7b52b)"/>
            </g>
        </g>
    </g>
</svg>
