<svg xmlns="http://www.w3.org/2000/svg" xmlns:xlink="http://www.w3.org/1999/xlink" width="60" height="60" viewBox="0 0 60 60">
    <defs>
        <path id="7j02h4743a" d="M0 0H60V60H0z"/>
    </defs>
    <g fill="none" fill-rule="evenodd">
        <g>
            <g>
                <g transform="translate(-570 -3251) translate(150 2845) translate(420 406)">
                    <mask id="c5dcrgp5tb" fill="#fff">
                        <use xlink:href="#7j02h4743a"/>
                    </mask>
                    <path fill="#110F57" d="M24.774 28.008h10.453c1.03 0 1.875-.832 1.875-1.875V19.78c0-3.914-3.188-7.09-7.09-7.09-3.903 0-7.09 3.188-7.09 7.09v6.352c-.012 1.043.82 1.875 1.852 1.875zM30 11.379c3.117 0 5.648-2.531 5.648-5.649 0-3.117-2.53-5.648-5.648-5.648-3.117 0-5.648 2.531-5.648 5.648 0 3.118 2.53 5.649 5.648 5.649zM7.09 44.602c-3.902 0-7.09 3.187-7.09 7.101v6.352c0 1.03.832 1.875 1.875 1.875h10.453c1.031 0 1.875-.832 1.875-1.875v-6.352c-.012-3.914-3.2-7.101-7.113-7.101zM7.09 43.29c3.117 0 5.648-2.532 5.648-5.65 0-3.117-2.531-5.648-5.648-5.648-3.117 0-5.649 2.531-5.649 5.649 0 3.117 2.532 5.648 5.649 5.648zM52.91 44.602c-3.914 0-7.09 3.187-7.09 7.09v6.351c0 1.031.832 1.875 1.875 1.875h10.43c1.031 0 1.875-.832 1.875-1.875v-6.352c0-3.902-3.188-7.09-7.09-7.09zM52.91 43.29c3.117 0 5.649-2.532 5.649-5.65 0-3.117-2.532-5.648-5.649-5.648s-5.648 2.531-5.648 5.649c-.012 3.117 2.531 5.648 5.648 5.648z" mask="url(#c5dcrgp5tb)"/>
                    <path fill="#009FFF" d="M39.867 47.73l-7.992-5.097v-8.121c0-1.032-.832-1.875-1.875-1.875-1.043 0-1.875.832-1.875 1.875v8.12l-7.992 5.087c-.88.55-1.125 1.71-.575 2.578.551.867 1.711 1.125 2.578.574l7.852-5.004c8.379 5.332 8.086 5.297 8.86 5.297 1.863.012 2.59-2.426 1.019-3.434z" mask="url(#c5dcrgp5tb)"/>
                </g>
            </g>
        </g>
    </g>
</svg>
